<svg xmlns="http://www.w3.org/2000/svg" xmlns:xlink="http://www.w3.org/1999/xlink" width="1024" zoomAndPan="magnify" viewBox="0 0 768 767.999994" height="1024" preserveAspectRatio="xMidYMid meet" version="1.0"><defs><g/><clipPath id="138fa9d1ff"><rect x="0" width="311" y="0" height="122"/></clipPath><clipPath id="4682371b33"><rect x="0" width="311" y="0" height="122"/></clipPath></defs><path fill="#afc8a0" d="M 330.601562 366.886719 C 330.0625 364.617188 331.496094 362.660156 333.777344 362.519531 C 334.109375 362.5 334.289062 362.378906 334.4375 362.089844 C 337.867188 355.445312 341.304688 348.804688 344.738281 342.164062 C 346.132812 339.46875 347.515625 336.773438 348.917969 334.085938 C 349.082031 333.773438 349.078125 333.566406 348.863281 333.269531 C 347.703125 331.6875 348.003906 329.558594 349.511719 328.421875 C 351.066406 327.253906 353.199219 327.550781 354.394531 329.132812 C 354.613281 329.421875 354.820312 329.476562 355.15625 329.453125 C 358.917969 329.164062 362.683594 328.898438 366.445312 328.605469 C 370.96875 328.253906 375.488281 327.871094 380.011719 327.519531 C 382.839844 327.296875 385.675781 327.117188 388.507812 326.894531 C 392.023438 326.617188 395.535156 326.3125 399.046875 326.027344 C 400.320312 325.921875 401.59375 325.824219 402.871094 325.761719 C 403.484375 325.734375 403.882812 325.609375 404.121094 324.910156 C 404.609375 323.476562 406.304688 322.625 407.835938 322.894531 C 409.429688 323.175781 410.734375 324.535156 410.6875 326.082031 C 410.660156 326.972656 411.003906 327.382812 411.722656 327.796875 C 417.59375 331.207031 423.441406 334.65625 429.296875 338.097656 C 429.613281 338.285156 429.859375 338.355469 430.230469 338.152344 C 431.941406 337.214844 434.074219 337.878906 434.949219 339.574219 C 435.851562 341.328125 435.167969 343.394531 433.375 344.285156 C 433.082031 344.429688 432.964844 344.609375 432.929688 344.933594 C 432.566406 348.269531 432.183594 351.597656 431.8125 354.929688 C 431.492188 357.847656 431.1875 360.765625 430.867188 363.683594 C 430.65625 365.574219 430.4375 367.46875 430.210938 369.359375 C 430.167969 369.742188 430.238281 370.023438 430.515625 370.332031 C 431.511719 371.429688 431.800781 372.695312 431.199219 374.089844 C 430.621094 375.4375 429.53125 376.109375 428.105469 376.175781 C 427.164062 376.21875 426.296875 375.875 425.628906 375.179688 C 425.359375 374.898438 425.097656 374.828125 424.714844 374.882812 C 420.53125 375.492188 416.339844 376.078125 412.152344 376.6875 C 407.589844 377.347656 403.027344 378.023438 398.464844 378.691406 C 398.316406 378.714844 398.164062 378.730469 398.011719 378.738281 C 397.1875 378.789062 396.453125 378.933594 396.097656 379.851562 C 395.925781 380.296875 395.484375 380.59375 395.050781 380.789062 C 394.609375 380.988281 394.558594 381.289062 394.578125 381.703125 C 394.691406 384.21875 394.804688 386.734375 394.894531 389.25 C 394.992188 392.183594 395.050781 395.121094 395.15625 398.058594 C 395.285156 401.734375 395.449219 405.410156 395.582031 409.089844 C 395.59375 409.464844 395.714844 409.65625 396.066406 409.816406 C 397.78125 410.609375 398.515625 412.488281 397.824219 414.230469 C 397.15625 415.90625 395.285156 416.804688 393.605469 416.25 C 391.785156 415.648438 390.730469 413.855469 391.339844 412.042969 C 391.648438 411.125 391.378906 410.644531 390.789062 410.042969 C 387.453125 406.632812 384.152344 403.1875 380.839844 399.753906 C 378.085938 396.898438 375.324219 394.046875 372.578125 391.183594 C 372.292969 390.886719 371.996094 390.753906 371.582031 390.746094 C 370.570312 390.730469 369.558594 390.6875 368.550781 390.609375 C 368.183594 390.582031 368.015625 390.699219 367.847656 391.011719 C 367.066406 392.449219 365.652344 393.121094 364.121094 392.828125 C 362.640625 392.542969 361.558594 391.359375 361.34375 389.785156 C 361.121094 388.183594 362.265625 386.503906 363.886719 386.125 C 364.386719 386.007812 364.632812 385.820312 364.667969 385.28125 C 364.703125 384.734375 364.835938 384.191406 364.960938 383.652344 C 365.046875 383.289062 364.925781 383.113281 364.597656 382.953125 C 361.867188 381.585938 359.148438 380.203125 356.425781 378.824219 C 351.507812 376.335938 346.585938 373.84375 341.667969 371.355469 C 340.050781 370.539062 338.429688 369.734375 336.820312 368.898438 C 336.40625 368.683594 336.09375 368.679688 335.667969 368.921875 C 333.648438 370.082031 331.335938 369.15625 330.601562 366.886719 M 414.085938 373.777344 C 417.425781 373.304688 420.761719 372.828125 424.105469 372.359375 C 424.417969 372.316406 424.628906 372.199219 424.714844 371.867188 C 425.042969 370.5625 425.890625 369.761719 427.160156 369.386719 C 427.453125 369.300781 427.59375 369.15625 427.632812 368.835938 C 427.753906 367.738281 427.921875 366.648438 428.042969 365.550781 C 428.445312 361.878906 428.824219 358.203125 429.226562 354.53125 C 429.585938 351.292969 429.957031 348.058594 430.332031 344.824219 C 430.371094 344.484375 430.292969 344.257812 429.988281 344.054688 C 428.96875 343.390625 428.480469 342.398438 428.441406 341.210938 C 428.425781 340.757812 428.25 340.53125 427.886719 340.320312 C 425.277344 338.804688 422.683594 337.273438 420.082031 335.746094 C 416.578125 333.6875 413.078125 331.628906 409.574219 329.566406 C 409.289062 329.402344 409.039062 329.289062 408.675781 329.445312 C 407.171875 330.085938 405.839844 329.773438 404.707031 328.617188 C 404.503906 328.410156 404.304688 328.292969 404.007812 328.3125 C 403.039062 328.378906 402.066406 328.417969 401.097656 328.492188 C 398.359375 328.703125 395.625 328.933594 392.886719 329.148438 C 390.757812 329.316406 388.628906 329.460938 386.5 329.628906 C 383.304688 329.882812 380.113281 330.148438 376.921875 330.402344 C 374.792969 330.574219 372.664062 330.726562 370.535156 330.894531 C 367.816406 331.109375 365.101562 331.328125 362.382812 331.546875 C 360.046875 331.734375 357.710938 331.925781 355.371094 332.105469 C 355.125 332.125 354.945312 332.183594 354.835938 332.4375 C 354.296875 333.703125 353.332031 334.429688 351.976562 334.617188 C 351.671875 334.660156 351.507812 334.804688 351.375 335.0625 C 350.40625 336.945312 349.429688 338.824219 348.460938 340.703125 C 346.714844 344.078125 344.972656 347.449219 343.230469 350.820312 C 341.089844 354.976562 338.953125 359.128906 336.800781 363.277344 C 336.636719 363.597656 336.65625 363.832031 336.847656 364.117188 C 337.183594 364.617188 337.367188 365.1875 337.390625 365.785156 C 337.40625 366.179688 337.589844 366.347656 337.90625 366.507812 C 340.75 367.941406 343.589844 369.386719 346.433594 370.824219 C 353.410156 374.355469 360.390625 377.886719 367.378906 381.402344 C 367.835938 381.636719 367.957031 381.882812 367.855469 382.378906 C 367.578125 383.722656 367.351562 385.078125 367.113281 386.429688 C 367.027344 386.921875 367.8125 387.917969 368.304688 387.945312 C 369.730469 388.027344 371.15625 388.121094 372.585938 388.171875 C 373.097656 388.1875 373.480469 388.335938 373.839844 388.710938 C 376.835938 391.839844 379.847656 394.949219 382.855469 398.066406 C 385.691406 401.007812 388.519531 403.949219 391.355469 406.886719 C 391.832031 407.382812 392.324219 407.871094 392.902344 408.453125 C 392.902344 408.082031 392.910156 407.875 392.902344 407.667969 C 392.835938 405.914062 392.757812 404.160156 392.695312 402.40625 C 392.578125 398.996094 392.464844 395.582031 392.351562 392.171875 C 392.230469 388.644531 392.101562 385.117188 392 381.589844 C 391.988281 381.183594 391.855469 380.949219 391.507812 380.722656 C 390.222656 379.890625 389.695312 378.660156 389.957031 377.175781 C 390.214844 375.730469 391.125 374.777344 392.570312 374.453125 C 394.027344 374.125 395.261719 374.597656 396.132812 375.808594 C 396.453125 376.25 396.777344 376.308594 397.246094 376.238281 C 398.996094 375.96875 400.75 375.714844 402.503906 375.460938 C 406.332031 374.902344 410.160156 374.351562 414.085938 373.777344 M 394.957031 376.160156 C 394.820312 376.058594 394.6875 375.945312 394.542969 375.855469 C 393.664062 375.308594 392.554688 375.40625 391.789062 376.097656 C 391.023438 376.78125 390.816406 377.945312 391.285156 378.875 C 391.722656 379.734375 392.769531 380.238281 393.738281 380.074219 C 395.332031 379.808594 396.398438 377.777344 394.957031 376.160156 M 425.726562 372.507812 C 425.703125 372.835938 425.738281 373.152344 425.851562 373.460938 C 426.253906 374.554688 427.359375 375.195312 428.488281 374.988281 C 429.570312 374.792969 430.382812 373.765625 430.34375 372.640625 C 430.308594 371.480469 429.457031 370.585938 428.265625 370.445312 C 427.0625 370.308594 426.136719 371.027344 425.726562 372.507812 M 362.703125 390.410156 C 363.042969 391.074219 363.554688 391.519531 364.296875 391.679688 C 365.3125 391.894531 366.332031 391.425781 366.800781 390.523438 C 367.300781 389.5625 367.128906 388.460938 366.363281 387.757812 C 365.5625 387.019531 364.429688 386.921875 363.527344 387.511719 C 362.609375 388.113281 362.296875 389.140625 362.703125 390.410156 M 394.890625 410.667969 C 394.757812 410.664062 394.625 410.648438 394.492188 410.65625 C 393.265625 410.71875 392.261719 411.792969 392.292969 413.007812 C 392.320312 414.238281 393.351562 415.222656 394.609375 415.222656 C 395.777344 415.21875 396.753906 414.402344 396.902344 413.304688 C 397.070312 412.023438 396.328125 411.003906 394.890625 410.667969 M 429.6875 341.855469 C 429.757812 342.011719 429.820312 342.171875 429.902344 342.320312 C 430.449219 343.285156 431.597656 343.710938 432.65625 343.347656 C 433.722656 342.980469 434.316406 341.917969 434.132812 340.703125 C 433.980469 339.707031 433.011719 338.898438 431.949219 338.875 C 430.402344 338.84375 429.4375 340.058594 429.6875 341.855469 M 405.761719 328.023438 C 406.785156 328.820312 407.953125 328.808594 408.824219 327.996094 C 409.613281 327.253906 409.789062 325.921875 409.210938 325.070312 C 408.386719 323.867188 406.929688 323.636719 405.78125 324.542969 C 404.929688 325.21875 404.515625 326.847656 405.761719 328.023438 M 335.710938 364.523438 C 334.6875 363.433594 333.199219 363.363281 332.273438 364.351562 C 331.3125 365.382812 331.421875 366.90625 332.523438 367.777344 C 333.386719 368.457031 334.636719 368.402344 335.464844 367.644531 C 336.34375 366.839844 336.457031 365.691406 335.710938 364.523438 M 351.839844 328.902344 C 351.421875 328.886719 351.007812 328.894531 350.617188 329.09375 C 349.582031 329.625 349.089844 330.753906 349.429688 331.832031 C 349.796875 332.992188 350.835938 333.628906 352.042969 333.433594 C 353.050781 333.269531 353.894531 332.269531 353.933594 331.207031 C 353.96875 330.109375 353.101562 329.109375 351.839844 328.902344 Z M 351.839844 328.902344 " fill-opacity="1" fill-rule="nonzero"/><path fill="#afc8a0" d="M 367.824219 334.515625 C 368.222656 335.089844 368.757812 335.0625 369.328125 335.007812 C 371.300781 334.808594 373.277344 334.636719 375.25 334.460938 C 377.546875 334.257812 379.84375 334.058594 382.140625 333.855469 C 384.113281 333.679688 386.085938 333.496094 388.058594 333.316406 C 390.753906 333.066406 393.449219 332.816406 396.144531 332.574219 C 398.460938 332.363281 400.777344 332.164062 403.09375 331.957031 C 404.839844 331.804688 406.585938 331.652344 408.328125 331.484375 C 408.710938 331.449219 409.015625 331.539062 409.339844 331.753906 C 415.367188 335.816406 421.402344 339.867188 427.441406 343.910156 C 427.796875 344.148438 427.890625 344.386719 427.800781 344.8125 C 426.726562 349.898438 425.667969 354.992188 424.609375 360.085938 C 424.117188 362.457031 423.617188 364.824219 423.160156 367.199219 C 423.0625 367.710938 422.824219 367.902344 422.34375 367.949219 C 420.429688 368.136719 418.515625 368.339844 416.601562 368.542969 C 413.929688 368.824219 411.253906 369.105469 408.582031 369.386719 C 405.855469 369.675781 403.125 369.964844 400.398438 370.253906 C 397.574219 370.550781 394.75 370.84375 391.925781 371.140625 C 390.691406 371.269531 389.460938 371.398438 388.230469 371.53125 C 387.929688 371.5625 387.621094 371.566406 387.265625 371.726562 C 388.328125 382.46875 389.394531 393.226562 390.460938 403.984375 C 390.136719 404.03125 390.078125 403.804688 389.980469 403.667969 C 386.449219 398.949219 382.925781 394.222656 379.402344 389.496094 C 378.566406 388.378906 377.730469 387.269531 376.90625 386.144531 C 376.691406 385.847656 376.4375 385.671875 376.085938 385.582031 C 373.699219 384.992188 371.320312 384.375 368.929688 383.789062 C 368.472656 383.679688 368.34375 383.503906 368.480469 383.039062 C 368.9375 381.445312 369.359375 379.839844 369.792969 378.238281 C 369.851562 378.023438 369.90625 377.800781 369.976562 377.527344 C 368.9375 377.050781 367.921875 376.574219 366.902344 376.113281 C 359.0625 372.570312 351.222656 369.027344 343.386719 365.488281 C 342.917969 365.273438 342.453125 365.042969 341.976562 364.851562 C 341.570312 364.6875 341.472656 364.496094 341.703125 364.082031 C 343.769531 360.359375 345.816406 356.632812 347.867188 352.90625 C 349.808594 349.378906 351.746094 345.851562 353.6875 342.328125 C 353.90625 341.925781 354.117188 341.519531 354.351562 341.125 C 354.730469 340.484375 355.015625 339.828125 355.121094 339.0625 C 355.277344 337.964844 356.15625 337.292969 357.25 337.273438 C 358.3125 337.257812 359.183594 337.902344 359.46875 338.914062 C 359.90625 340.488281 358.691406 341.898438 356.992188 341.730469 C 356.550781 341.6875 356.347656 341.808594 356.148438 342.171875 C 352.648438 348.566406 349.140625 354.949219 345.628906 361.335938 C 345.226562 362.070312 344.820312 362.800781 344.421875 363.519531 C 344.632812 363.816406 344.921875 363.886719 345.175781 364 C 351.410156 366.828125 357.652344 369.648438 363.890625 372.472656 C 366.546875 373.675781 369.199219 374.894531 371.863281 376.082031 C 372.335938 376.292969 372.460938 376.5 372.300781 377.027344 C 371.820312 378.574219 371.421875 380.144531 370.992188 381.707031 C 370.957031 381.832031 370.957031 381.964844 370.933594 382.140625 C 371.628906 382.324219 372.304688 382.503906 372.984375 382.675781 C 374.441406 383.046875 375.898438 383.425781 377.363281 383.777344 C 377.683594 383.855469 377.898438 384.011719 378.089844 384.269531 C 381.144531 388.371094 384.203125 392.46875 387.265625 396.5625 C 387.34375 396.667969 387.429688 396.769531 387.574219 396.949219 C 387.710938 396.144531 387.53125 395.445312 387.46875 394.75 C 387.277344 392.585938 387.042969 390.425781 386.824219 388.265625 C 386.574219 385.78125 386.3125 383.300781 386.066406 380.816406 C 385.816406 378.257812 385.582031 375.695312 385.332031 373.132812 C 385.246094 372.222656 385.15625 371.3125 385.035156 370.40625 C 384.972656 369.949219 385.09375 369.765625 385.582031 369.714844 C 389.640625 369.3125 393.695312 368.890625 397.75 368.464844 C 400.746094 368.148438 403.734375 367.800781 406.726562 367.488281 C 410.234375 367.117188 413.742188 366.773438 417.246094 366.40625 C 418.441406 366.28125 419.628906 366.113281 420.824219 365.996094 C 421.203125 365.957031 421.339844 365.777344 421.410156 365.433594 C 422.246094 361.347656 423.089844 357.261719 423.929688 353.175781 C 424.441406 350.695312 424.941406 348.210938 425.476562 345.734375 C 425.570312 345.296875 425.441406 345.066406 425.097656 344.835938 C 419.726562 341.238281 414.351562 337.640625 408.992188 334.019531 C 408.476562 333.671875 407.988281 333.605469 407.386719 333.671875 C 405.527344 333.878906 403.664062 334.015625 401.804688 334.183594 C 398.996094 334.429688 396.183594 334.679688 393.375 334.925781 C 390.886719 335.144531 388.398438 335.34375 385.910156 335.570312 C 382.914062 335.839844 379.914062 336.128906 376.917969 336.40625 C 374.960938 336.585938 373.007812 336.757812 371.050781 336.933594 C 370.5 336.980469 369.949219 337.035156 369.398438 337.070312 C 368.871094 337.105469 368.46875 337.25 368.117188 337.734375 C 367.429688 338.679688 366.078125 338.816406 365.140625 338.15625 C 364.140625 337.457031 363.871094 336.175781 364.496094 335.113281 C 365.074219 334.128906 366.347656 333.75 367.398438 334.253906 C 367.535156 334.320312 367.660156 334.410156 367.824219 334.515625 Z M 367.824219 334.515625 " fill-opacity="1" fill-rule="nonzero"/><path fill="#afc8a0" d="M 387.015625 340.921875 C 391.445312 340.453125 395.824219 339.996094 400.199219 339.539062 C 403.421875 339.199219 406.640625 338.859375 409.863281 338.515625 C 410.148438 338.484375 410.375 338.5625 410.585938 338.761719 C 413.789062 341.789062 416.996094 344.8125 420.207031 347.832031 C 420.453125 348.058594 420.527344 348.285156 420.496094 348.632812 C 420.304688 350.757812 420.15625 352.886719 419.988281 355.015625 C 419.902344 356.097656 419.796875 357.179688 419.722656 358.265625 C 419.691406 358.734375 419.507812 358.914062 419.015625 358.921875 C 414.644531 358.988281 410.277344 359.070312 405.910156 359.164062 C 400.949219 359.269531 395.992188 359.394531 391.035156 359.507812 C 387.695312 359.582031 384.359375 359.660156 381.019531 359.71875 C 380.597656 359.726562 380.324219 359.796875 380.144531 360.242188 C 379.894531 360.851562 379.382812 361.238281 378.753906 361.4375 C 378.4375 361.539062 378.3125 361.703125 378.292969 362.050781 C 378.152344 364.601562 377.992188 367.148438 377.835938 369.699219 C 377.722656 371.582031 377.605469 373.464844 377.484375 375.347656 C 377.472656 375.539062 377.460938 375.730469 377.285156 375.914062 C 376.699219 375.621094 376.195312 375.183594 375.660156 374.800781 C 368.65625 369.769531 361.660156 364.734375 354.664062 359.695312 C 354.117188 359.300781 354.113281 359.265625 354.59375 358.820312 C 359.507812 354.273438 364.421875 349.726562 369.335938 345.175781 C 370.132812 344.4375 370.933594 343.703125 371.714844 342.945312 C 372.078125 342.597656 372.480469 342.429688 372.980469 342.378906 C 376.183594 342.054688 379.386719 341.707031 382.589844 341.375 C 384.046875 341.222656 385.507812 341.078125 387.015625 340.921875 M 411.679688 357.0625 C 411.777344 357.058594 411.871094 357.054688 411.964844 357.050781 C 413.757812 356.992188 415.554688 357.089844 417.34375 356.9375 C 417.601562 356.917969 417.835938 356.917969 417.863281 356.5625 C 418.046875 354.148438 418.242188 351.738281 418.4375 349.324219 C 418.460938 349.035156 418.371094 348.8125 418.15625 348.613281 C 415.46875 346.097656 412.78125 343.582031 410.113281 341.042969 C 409.707031 340.65625 409.300781 340.5625 408.773438 340.621094 C 406.386719 340.894531 404 341.148438 401.613281 341.398438 C 398.882812 341.679688 396.152344 341.9375 393.421875 342.226562 C 390.828125 342.5 388.234375 342.820312 385.640625 343.089844 C 381.699219 343.5 377.753906 343.882812 373.8125 344.289062 C 373.460938 344.328125 373.109375 344.355469 372.8125 344.636719 C 370.640625 346.675781 368.457031 348.695312 366.273438 350.714844 C 363.824219 352.984375 361.375 355.25 358.925781 357.519531 C 358.375 358.03125 357.835938 358.5625 357.257812 359.113281 C 363.414062 363.542969 369.5 367.925781 375.648438 372.351562 C 375.753906 370.9375 375.859375 369.628906 375.941406 368.320312 C 376.0625 366.382812 376.191406 364.441406 376.265625 362.5 C 376.289062 361.898438 376.507812 361.269531 376.042969 360.6875 C 375.167969 359.597656 375.3125 357.976562 376.296875 357.179688 C 377.433594 356.261719 378.886719 356.390625 379.878906 357.503906 C 380.039062 357.683594 380.1875 357.800781 380.453125 357.792969 C 382.492188 357.730469 384.535156 357.679688 386.574219 357.628906 C 390.082031 357.550781 393.589844 357.472656 397.097656 357.394531 C 400.875 357.308594 404.648438 357.226562 408.425781 357.144531 C 409.476562 357.121094 410.523438 357.175781 411.679688 357.0625 Z M 411.679688 357.0625 " fill-opacity="1" fill-rule="nonzero"/><path fill="#afc8a0" d="M 395.652344 350.230469 C 391.441406 350.132812 387.285156 349.96875 383.132812 349.78125 C 381.875 349.726562 380.613281 349.722656 379.355469 349.683594 C 379.148438 349.679688 378.988281 349.761719 378.828125 349.867188 C 375.074219 352.390625 371.324219 354.910156 367.570312 357.433594 C 367.476562 357.496094 367.394531 357.578125 367.3125 357.644531 C 367.3125 357.886719 367.5 357.984375 367.625 358.113281 C 368.074219 358.578125 368.554688 359.019531 368.992188 359.496094 C 369.480469 360.023438 369.929688 360.367188 370.78125 360.308594 C 372.238281 360.207031 373.371094 361.53125 373.253906 362.925781 C 373.125 364.429688 371.917969 365.40625 370.410156 365.226562 C 368.984375 365.058594 368.03125 363.765625 368.3125 362.292969 C 368.398438 361.847656 368.28125 361.585938 367.984375 361.296875 C 366.839844 360.175781 365.714844 359.035156 364.582031 357.898438 C 364.4375 357.753906 364.261719 357.628906 364.179688 357.378906 C 364.683594 356.882812 365.308594 356.550781 365.882812 356.160156 C 369.933594 353.429688 373.992188 350.714844 378.046875 347.992188 C 378.328125 347.804688 378.605469 347.699219 378.953125 347.714844 C 380.589844 347.777344 382.230469 347.785156 383.871094 347.847656 C 388.921875 348.042969 393.972656 348.1875 399.027344 348.359375 C 401.941406 348.457031 404.859375 348.566406 407.773438 348.675781 C 408.078125 348.6875 408.382812 348.71875 408.6875 348.75 C 409.28125 348.808594 409.78125 348.765625 410.285156 348.28125 C 411.328125 347.277344 413.0625 347.515625 413.917969 348.679688 C 414.757812 349.820312 414.460938 351.480469 413.277344 352.261719 C 412.074219 353.058594 410.382812 352.671875 409.730469 351.367188 C 409.457031 350.820312 409.113281 350.699219 408.574219 350.679688 C 404.285156 350.542969 399.996094 350.382812 395.652344 350.230469 Z M 395.652344 350.230469 " fill-opacity="1" fill-rule="nonzero"/><g transform="matrix(1, 0, 0, 1, 14, 307)"><g clip-path="url(#138fa9d1ff)"><g fill="#006d8f" fill-opacity="1"><g transform="translate(0.528334, 96.902188)"><g><path d="M 45.828125 -18.140625 C 45.828125 -15.335938 45.304688 -12.734375 44.265625 -10.328125 C 43.234375 -7.921875 41.796875 -5.8125 39.953125 -4 C 38.117188 -2.195312 35.894531 -0.796875 33.28125 0.203125 C 30.675781 1.203125 27.769531 1.703125 24.5625 1.703125 C 21.425781 1.703125 18.550781 1.234375 15.9375 0.296875 C 13.332031 -0.640625 11.109375 -1.941406 9.265625 -3.609375 C 7.429688 -5.273438 6.015625 -7.257812 5.015625 -9.5625 C 4.015625 -11.875 3.515625 -14.367188 3.515625 -17.046875 L 3.515625 -20.25 L 14.03125 -20.25 L 14.03125 -19.15625 C 14.03125 -11.257812 17.640625 -7.3125 24.859375 -7.3125 C 28.273438 -7.3125 30.832031 -8.210938 32.53125 -10.015625 C 34.238281 -11.828125 35.09375 -14.132812 35.09375 -16.9375 C 35.09375 -18.34375 34.890625 -19.597656 34.484375 -20.703125 C 34.085938 -21.804688 33.421875 -22.859375 32.484375 -23.859375 C 31.546875 -24.867188 30.238281 -25.875 28.5625 -26.875 C 26.894531 -27.875 24.828125 -28.941406 22.359375 -30.078125 C 20.148438 -31.078125 17.957031 -32.195312 15.78125 -33.4375 C 13.613281 -34.675781 11.691406 -36.078125 10.015625 -37.640625 C 8.347656 -39.210938 6.992188 -41.019531 5.953125 -43.0625 C 4.921875 -45.101562 4.40625 -47.460938 4.40625 -50.140625 C 4.40625 -52.609375 4.859375 -54.960938 5.765625 -57.203125 C 6.671875 -59.441406 7.972656 -61.378906 9.671875 -63.015625 C 11.378906 -64.648438 13.46875 -65.953125 15.9375 -66.921875 C 18.414062 -67.890625 21.257812 -68.375 24.46875 -68.375 C 27.601562 -68.375 30.457031 -67.90625 33.03125 -66.96875 C 35.601562 -66.039062 37.789062 -64.738281 39.59375 -63.0625 C 41.40625 -61.394531 42.796875 -59.40625 43.765625 -57.09375 C 44.734375 -54.789062 45.21875 -52.300781 45.21875 -49.625 L 45.21875 -47.03125 L 35 -47.03125 L 35 -48.125 C 35 -49.664062 34.796875 -51.117188 34.390625 -52.484375 C 33.992188 -53.859375 33.359375 -55.0625 32.484375 -56.09375 C 31.617188 -57.132812 30.5 -57.953125 29.125 -58.546875 C 27.757812 -59.148438 26.101562 -59.453125 24.15625 -59.453125 C 21.082031 -59.453125 18.796875 -58.648438 17.296875 -57.046875 C 15.796875 -55.441406 15.046875 -53.472656 15.046875 -51.140625 C 15.046875 -49.796875 15.242188 -48.601562 15.640625 -47.5625 C 16.046875 -46.53125 16.78125 -45.53125 17.84375 -44.5625 C 18.914062 -43.59375 20.367188 -42.585938 22.203125 -41.546875 C 24.046875 -40.515625 26.40625 -39.300781 29.28125 -37.90625 C 32.21875 -36.5 34.722656 -35.109375 36.796875 -33.734375 C 38.867188 -32.367188 40.570312 -30.898438 41.90625 -29.328125 C 43.25 -27.753906 44.238281 -26.066406 44.875 -24.265625 C 45.507812 -22.460938 45.828125 -20.421875 45.828125 -18.140625 Z M 45.828125 -18.140625 "/></g></g></g><g fill="#006d8f" fill-opacity="1"><g transform="translate(49.85331, 96.902188)"><g><path d="M 6.21875 0 L 6.21875 -66.78125 L 42.3125 -66.78125 L 42.3125 -57.25 L 16.84375 -57.25 L 16.84375 -39.703125 L 35.1875 -39.703125 L 35.1875 -30.6875 L 16.84375 -30.6875 L 16.84375 -9.53125 L 42.3125 -9.53125 L 42.3125 0 Z M 6.21875 0 "/></g></g></g><g fill="#006d8f" fill-opacity="1"><g transform="translate(95.468887, 96.902188)"><g><path d="M 47.921875 -17.953125 C 47.921875 -15.273438 47.519531 -12.75 46.71875 -10.375 C 45.914062 -8 44.660156 -5.910156 42.953125 -4.109375 C 41.253906 -2.304688 39.066406 -0.890625 36.390625 0.140625 C 33.722656 1.179688 30.515625 1.703125 26.765625 1.703125 C 23.023438 1.703125 19.800781 1.117188 17.09375 -0.046875 C 14.382812 -1.222656 12.144531 -2.757812 10.375 -4.65625 C 8.601562 -6.5625 7.300781 -8.769531 6.46875 -11.28125 C 5.632812 -13.789062 5.21875 -16.414062 5.21875 -19.15625 L 5.21875 -47.625 C 5.21875 -50.300781 5.632812 -52.890625 6.46875 -55.390625 C 7.300781 -57.898438 8.601562 -60.125 10.375 -62.0625 C 12.144531 -64 14.382812 -65.535156 17.09375 -66.671875 C 19.800781 -67.804688 23.023438 -68.375 26.765625 -68.375 C 30.515625 -68.375 33.722656 -67.851562 36.390625 -66.8125 C 39.066406 -65.78125 41.253906 -64.378906 42.953125 -62.609375 C 44.660156 -60.835938 45.914062 -58.765625 46.71875 -56.390625 C 47.519531 -54.023438 47.921875 -51.503906 47.921875 -48.828125 L 47.921875 -43.421875 L 38.296875 -43.421875 L 38.296875 -48.125 C 38.296875 -51.53125 37.375 -54.21875 35.53125 -56.1875 C 33.695312 -58.164062 30.878906 -59.15625 27.078125 -59.15625 C 23.265625 -59.15625 20.4375 -58.164062 18.59375 -56.1875 C 16.757812 -54.21875 15.84375 -51.695312 15.84375 -48.625 L 15.84375 -18.046875 C 15.84375 -15.035156 16.757812 -12.546875 18.59375 -10.578125 C 20.4375 -8.609375 23.265625 -7.625 27.078125 -7.625 C 30.878906 -7.625 33.695312 -8.609375 35.53125 -10.578125 C 37.375 -12.546875 38.296875 -15.238281 38.296875 -18.65625 L 38.296875 -23.359375 L 47.921875 -23.359375 Z M 47.921875 -17.953125 "/></g></g></g><g fill="#006d8f" fill-opacity="1"><g transform="translate(146.899203, 96.902188)"><g><path d="M 48.328125 -19.953125 C 48.328125 -16.878906 47.910156 -14.019531 47.078125 -11.375 C 46.242188 -8.738281 44.9375 -6.453125 43.15625 -4.515625 C 41.382812 -2.578125 39.144531 -1.054688 36.4375 0.046875 C 33.738281 1.148438 30.515625 1.703125 26.765625 1.703125 C 23.023438 1.703125 19.800781 1.148438 17.09375 0.046875 C 14.382812 -1.054688 12.144531 -2.578125 10.375 -4.515625 C 8.601562 -6.453125 7.300781 -8.738281 6.46875 -11.375 C 5.632812 -14.019531 5.21875 -16.878906 5.21875 -19.953125 L 5.21875 -46.828125 C 5.21875 -49.898438 5.632812 -52.738281 6.46875 -55.34375 C 7.300781 -57.945312 8.601562 -60.21875 10.375 -62.15625 C 12.144531 -64.101562 14.382812 -65.625 17.09375 -66.71875 C 19.800781 -67.820312 23.023438 -68.375 26.765625 -68.375 C 30.515625 -68.375 33.738281 -67.820312 36.4375 -66.71875 C 39.144531 -65.625 41.382812 -64.101562 43.15625 -62.15625 C 44.9375 -60.21875 46.242188 -57.945312 47.078125 -55.34375 C 47.910156 -52.738281 48.328125 -49.898438 48.328125 -46.828125 Z M 37.703125 -47.53125 C 37.703125 -50.9375 36.832031 -53.722656 35.09375 -55.890625 C 33.351562 -58.066406 30.578125 -59.15625 26.765625 -59.15625 C 23.023438 -59.15625 20.285156 -58.066406 18.546875 -55.890625 C 16.804688 -53.722656 15.9375 -50.9375 15.9375 -47.53125 L 15.9375 -19.25 C 15.9375 -15.84375 16.804688 -13.050781 18.546875 -10.875 C 20.285156 -8.707031 23.023438 -7.625 26.765625 -7.625 C 30.578125 -7.625 33.351562 -8.707031 35.09375 -10.875 C 36.832031 -13.050781 37.703125 -15.84375 37.703125 -19.25 Z M 37.703125 -47.53125 "/></g></g></g><g fill="#006d8f" fill-opacity="1"><g transform="translate(200.434848, 96.902188)"><g><path d="M 42.21875 0 L 23.0625 -31.890625 L 16.25 -44.109375 L 16.25 0 L 6.21875 0 L 6.21875 -66.78125 L 14.4375 -66.78125 L 33.09375 -34.296875 L 39.609375 -22.0625 L 39.609375 -66.78125 L 49.625 -66.78125 L 49.625 0 Z M 42.21875 0 "/></g></g></g><g fill="#006d8f" fill-opacity="1"><g transform="translate(256.27633, 96.902188)"><g><path d="M 48.734375 -19.65625 C 48.734375 -16.914062 48.332031 -14.359375 47.53125 -11.984375 C 46.726562 -9.609375 45.472656 -7.535156 43.765625 -5.765625 C 42.054688 -3.992188 39.898438 -2.585938 37.296875 -1.546875 C 34.691406 -0.515625 31.617188 0 28.078125 0 L 6.21875 0 L 6.21875 -66.78125 L 28.078125 -66.78125 C 31.617188 -66.78125 34.691406 -66.257812 37.296875 -65.21875 C 39.898438 -64.1875 42.054688 -62.785156 43.765625 -61.015625 C 45.472656 -59.242188 46.726562 -57.15625 47.53125 -54.75 C 48.332031 -52.34375 48.734375 -49.800781 48.734375 -47.125 Z M 38.09375 -46.015625 C 38.09375 -49.566406 37.222656 -52.328125 35.484375 -54.296875 C 33.753906 -56.265625 30.984375 -57.25 27.171875 -57.25 L 16.84375 -57.25 L 16.84375 -9.53125 L 27.171875 -9.53125 C 30.984375 -9.53125 33.753906 -10.515625 35.484375 -12.484375 C 37.222656 -14.453125 38.09375 -17.175781 38.09375 -20.65625 Z M 38.09375 -46.015625 "/></g></g></g></g></g><g transform="matrix(1, 0, 0, 1, 445, 307)"><g clip-path="url(#4682371b33)"><g fill="#006d8f" fill-opacity="1"><g transform="translate(0.944989, 96.902188)"><g><path d="M 47.921875 -17.953125 C 47.921875 -15.273438 47.519531 -12.75 46.71875 -10.375 C 45.914062 -8 44.660156 -5.910156 42.953125 -4.109375 C 41.253906 -2.304688 39.066406 -0.890625 36.390625 0.140625 C 33.722656 1.179688 30.515625 1.703125 26.765625 1.703125 C 23.023438 1.703125 19.800781 1.117188 17.09375 -0.046875 C 14.382812 -1.222656 12.144531 -2.757812 10.375 -4.65625 C 8.601562 -6.5625 7.300781 -8.769531 6.46875 -11.28125 C 5.632812 -13.789062 5.21875 -16.414062 5.21875 -19.15625 L 5.21875 -47.625 C 5.21875 -50.300781 5.632812 -52.890625 6.46875 -55.390625 C 7.300781 -57.898438 8.601562 -60.125 10.375 -62.0625 C 12.144531 -64 14.382812 -65.535156 17.09375 -66.671875 C 19.800781 -67.804688 23.023438 -68.375 26.765625 -68.375 C 30.515625 -68.375 33.722656 -67.851562 36.390625 -66.8125 C 39.066406 -65.78125 41.253906 -64.378906 42.953125 -62.609375 C 44.660156 -60.835938 45.914062 -58.765625 46.71875 -56.390625 C 47.519531 -54.023438 47.921875 -51.503906 47.921875 -48.828125 L 47.921875 -43.421875 L 38.296875 -43.421875 L 38.296875 -48.125 C 38.296875 -51.53125 37.375 -54.21875 35.53125 -56.1875 C 33.695312 -58.164062 30.878906 -59.15625 27.078125 -59.15625 C 23.265625 -59.15625 20.4375 -58.164062 18.59375 -56.1875 C 16.757812 -54.21875 15.84375 -51.695312 15.84375 -48.625 L 15.84375 -18.046875 C 15.84375 -15.035156 16.757812 -12.546875 18.59375 -10.578125 C 20.4375 -8.609375 23.265625 -7.625 27.078125 -7.625 C 30.878906 -7.625 33.695312 -8.609375 35.53125 -10.578125 C 37.375 -12.546875 38.296875 -15.238281 38.296875 -18.65625 L 38.296875 -23.359375 L 47.921875 -23.359375 Z M 47.921875 -17.953125 "/></g></g></g><g fill="#006d8f" fill-opacity="1"><g transform="translate(52.375305, 96.902188)"><g><path d="M 39.609375 0 L 39.609375 -29.078125 L 16.84375 -29.078125 L 16.84375 0 L 6.21875 0 L 6.21875 -66.78125 L 16.84375 -66.78125 L 16.84375 -38.5 L 39.609375 -38.5 L 39.609375 -66.78125 L 50.234375 -66.78125 L 50.234375 0 Z M 39.609375 0 "/></g></g></g><g fill="#006d8f" fill-opacity="1"><g transform="translate(108.818315, 96.902188)"><g><path d="M 36.703125 0 L 32.390625 -17.25 L 15.234375 -17.25 L 11.125 0 L 0.703125 0 L 18.34375 -66.78125 L 29.578125 -66.78125 L 47.421875 0 Z M 23.65625 -52.34375 L 17.34375 -26.0625 L 30.1875 -26.0625 Z M 23.65625 -52.34375 "/></g></g></g><g fill="#006d8f" fill-opacity="1"><g transform="translate(156.940244, 96.902188)"><g><path d="M 42.21875 0 L 23.0625 -31.890625 L 16.25 -44.109375 L 16.25 0 L 6.21875 0 L 6.21875 -66.78125 L 14.4375 -66.78125 L 33.09375 -34.296875 L 39.609375 -22.0625 L 39.609375 -66.78125 L 49.625 -66.78125 L 49.625 0 Z M 42.21875 0 "/></g></g></g><g fill="#006d8f" fill-opacity="1"><g transform="translate(212.781726, 96.902188)"><g><path d="M 47.921875 -17.953125 C 47.921875 -15.273438 47.519531 -12.75 46.71875 -10.375 C 45.914062 -8 44.660156 -5.910156 42.953125 -4.109375 C 41.253906 -2.304688 39.066406 -0.890625 36.390625 0.140625 C 33.722656 1.179688 30.515625 1.703125 26.765625 1.703125 C 23.023438 1.703125 19.800781 1.117188 17.09375 -0.046875 C 14.382812 -1.222656 12.144531 -2.757812 10.375 -4.65625 C 8.601562 -6.5625 7.300781 -8.769531 6.46875 -11.28125 C 5.632812 -13.789062 5.21875 -16.414062 5.21875 -19.15625 L 5.21875 -47.625 C 5.21875 -50.300781 5.632812 -52.890625 6.46875 -55.390625 C 7.300781 -57.898438 8.601562 -60.125 10.375 -62.0625 C 12.144531 -64 14.382812 -65.535156 17.09375 -66.671875 C 19.800781 -67.804688 23.023438 -68.375 26.765625 -68.375 C 30.515625 -68.375 33.722656 -67.851562 36.390625 -66.8125 C 39.066406 -65.78125 41.253906 -64.378906 42.953125 -62.609375 C 44.660156 -60.835938 45.914062 -58.765625 46.71875 -56.390625 C 47.519531 -54.023438 47.921875 -51.503906 47.921875 -48.828125 L 47.921875 -43.421875 L 38.296875 -43.421875 L 38.296875 -48.125 C 38.296875 -51.53125 37.375 -54.21875 35.53125 -56.1875 C 33.695312 -58.164062 30.878906 -59.15625 27.078125 -59.15625 C 23.265625 -59.15625 20.4375 -58.164062 18.59375 -56.1875 C 16.757812 -54.21875 15.84375 -51.695312 15.84375 -48.625 L 15.84375 -18.046875 C 15.84375 -15.035156 16.757812 -12.546875 18.59375 -10.578125 C 20.4375 -8.609375 23.265625 -7.625 27.078125 -7.625 C 30.878906 -7.625 33.695312 -8.609375 35.53125 -10.578125 C 37.375 -12.546875 38.296875 -15.238281 38.296875 -18.65625 L 38.296875 -23.359375 L 47.921875 -23.359375 Z M 47.921875 -17.953125 "/></g></g></g><g fill="#006d8f" fill-opacity="1"><g transform="translate(264.212051, 96.902188)"><g><path d="M 6.21875 0 L 6.21875 -66.78125 L 42.3125 -66.78125 L 42.3125 -57.25 L 16.84375 -57.25 L 16.84375 -39.703125 L 35.1875 -39.703125 L 35.1875 -30.6875 L 16.84375 -30.6875 L 16.84375 -9.53125 L 42.3125 -9.53125 L 42.3125 0 Z M 6.21875 0 "/></g></g></g></g></g></svg>