<svg xmlns="http://www.w3.org/2000/svg" xmlns:xlink="http://www.w3.org/1999/xlink" width="1024" zoomAndPan="magnify" viewBox="0 0 768 767.999994" height="1024" preserveAspectRatio="xMidYMid meet" version="1.0"><defs><clipPath id="5062e7fbb7"><path d="M 92.402344 92.402344 L 675.597656 92.402344 L 675.597656 675.597656 L 92.402344 675.597656 Z M 92.402344 92.402344 " clip-rule="nonzero"/></clipPath><clipPath id="4e68a31a8d"><path d="M 384 92.402344 C 222.953125 92.402344 92.402344 222.953125 92.402344 384 C 92.402344 545.046875 222.953125 675.597656 384 675.597656 C 545.046875 675.597656 675.597656 545.046875 675.597656 384 C 675.597656 222.953125 545.046875 92.402344 384 92.402344 Z M 384 92.402344 " clip-rule="nonzero"/></clipPath><clipPath id="f05fa99295"><path d="M 0.402344 0.402344 L 583.597656 0.402344 L 583.597656 583.597656 L 0.402344 583.597656 Z M 0.402344 0.402344 " clip-rule="nonzero"/></clipPath><clipPath id="66c2ead09f"><path d="M 292 0.402344 C 130.953125 0.402344 0.402344 130.953125 0.402344 292 C 0.402344 453.046875 130.953125 583.597656 292 583.597656 C 453.046875 583.597656 583.597656 453.046875 583.597656 292 C 583.597656 130.953125 453.046875 0.402344 292 0.402344 Z M 292 0.402344 " clip-rule="nonzero"/></clipPath><clipPath id="97a89612b3"><rect x="0" width="584" y="0" height="584"/></clipPath></defs><g clip-path="url(#5062e7fbb7)"><g clip-path="url(#4e68a31a8d)"><g transform="matrix(1, 0, 0, 1, 92, 92)"><g clip-path="url(#97a89612b3)"><g clip-path="url(#f05fa99295)"><g clip-path="url(#66c2ead09f)"><path fill="#000000" d="M 0.402344 0.402344 L 583.597656 0.402344 L 583.597656 583.597656 L 0.402344 583.597656 Z M 0.402344 0.402344 " fill-opacity="1" fill-rule="nonzero"/></g></g></g></g></g></g><path fill="#afc8a0" d="M 121.269531 381.375 C 118.683594 370.5 125.5625 361.109375 136.492188 360.445312 C 138.082031 360.351562 138.941406 359.769531 139.65625 358.386719 C 156.09375 326.53125 172.570312 294.699219 189.035156 262.863281 C 195.714844 249.949219 202.355469 237.015625 209.078125 224.128906 C 209.855469 222.640625 209.84375 221.648438 208.800781 220.222656 C 203.246094 212.628906 204.679688 202.429688 211.921875 196.984375 C 219.367188 191.382812 229.589844 192.808594 235.316406 200.382812 C 236.367188 201.769531 237.363281 202.046875 238.976562 201.925781 C 257.015625 200.535156 275.0625 199.277344 293.101562 197.871094 C 314.777344 196.183594 336.445312 194.347656 358.121094 192.652344 C 371.695312 191.589844 385.285156 190.730469 398.859375 189.660156 C 415.703125 188.332031 432.539062 186.867188 449.382812 185.5 C 455.484375 185.003906 461.59375 184.539062 467.707031 184.238281 C 470.660156 184.09375 472.566406 183.503906 473.703125 180.152344 C 476.039062 173.285156 484.167969 169.1875 491.523438 170.488281 C 499.15625 171.835938 505.40625 178.34375 505.175781 185.761719 C 505.046875 190.035156 506.699219 191.992188 510.136719 193.988281 C 538.289062 210.335938 566.332031 226.867188 594.394531 243.371094 C 595.910156 244.265625 597.082031 244.605469 598.875 243.625 C 607.070312 239.136719 617.304688 242.320312 621.480469 250.449219 C 625.808594 258.859375 622.539062 268.757812 613.945312 273.019531 C 612.539062 273.71875 611.976562 274.582031 611.808594 276.140625 C 610.070312 292.121094 608.222656 308.089844 606.457031 324.066406 C 604.914062 338.046875 603.457031 352.035156 601.917969 366.019531 C 600.921875 375.09375 599.867188 384.160156 598.785156 393.226562 C 598.5625 395.058594 598.902344 396.421875 600.242188 397.898438 C 605.011719 403.160156 606.394531 409.230469 603.515625 415.90625 C 600.734375 422.363281 595.507812 425.585938 588.6875 425.90625 C 584.160156 426.117188 580.019531 424.464844 576.804688 421.132812 C 575.511719 419.792969 574.257812 419.441406 572.4375 419.707031 C 552.371094 422.636719 532.285156 425.449219 512.214844 428.355469 C 490.335938 431.523438 468.464844 434.765625 446.59375 437.96875 C 445.871094 438.074219 445.140625 438.152344 444.410156 438.195312 C 440.46875 438.445312 436.945312 439.132812 435.246094 443.53125 C 434.421875 445.660156 432.292969 447.089844 430.21875 448.027344 C 428.113281 448.980469 427.863281 450.425781 427.953125 452.414062 C 428.503906 464.464844 429.050781 476.519531 429.464844 488.578125 C 429.953125 502.648438 430.230469 516.730469 430.730469 530.800781 C 431.355469 548.433594 432.132812 566.058594 432.769531 583.691406 C 432.832031 585.488281 433.410156 586.40625 435.085938 587.179688 C 443.3125 590.980469 446.828125 599.984375 443.511719 608.332031 C 440.320312 616.367188 431.339844 620.671875 423.296875 618.015625 C 414.5625 615.132812 409.507812 606.53125 412.433594 597.859375 C 413.921875 593.453125 412.625 591.148438 409.796875 588.257812 C 393.8125 571.90625 377.984375 555.402344 362.105469 538.949219 C 348.890625 525.257812 335.660156 511.585938 322.492188 497.855469 C 321.117188 496.421875 319.699219 495.796875 317.710938 495.765625 C 312.867188 495.6875 308.019531 495.46875 303.1875 495.101562 C 301.433594 494.96875 300.628906 495.535156 299.8125 497.035156 C 296.066406 503.925781 289.296875 507.148438 281.945312 505.730469 C 274.847656 504.367188 269.660156 498.6875 268.628906 491.15625 C 267.578125 483.476562 273.046875 475.414062 280.824219 473.59375 C 283.226562 473.03125 284.40625 472.144531 284.578125 469.5625 C 284.75 466.9375 285.375 464.328125 285.980469 461.753906 C 286.390625 460.007812 285.808594 459.171875 284.242188 458.390625 C 271.15625 451.84375 258.113281 445.210938 245.054688 438.605469 C 221.476562 426.671875 197.898438 414.738281 174.316406 402.808594 C 166.566406 398.886719 158.785156 395.027344 151.074219 391.027344 C 149.097656 390 147.597656 389.972656 145.558594 391.144531 C 135.867188 396.703125 124.773438 392.253906 121.269531 381.375 M 521.46875 414.410156 C 537.476562 412.140625 553.484375 409.863281 569.5 407.621094 C 571.011719 407.410156 572.019531 406.835938 572.421875 405.246094 C 573.996094 399.003906 578.0625 395.15625 584.148438 393.367188 C 585.554688 392.957031 586.238281 392.261719 586.40625 390.730469 C 586.992188 385.46875 587.804688 380.234375 588.382812 374.972656 C 590.308594 357.363281 592.128906 339.746094 594.066406 322.140625 C 595.773438 306.621094 597.566406 291.113281 599.355469 275.605469 C 599.542969 273.988281 599.171875 272.890625 597.710938 271.933594 C 592.824219 268.738281 590.476562 263.992188 590.289062 258.285156 C 590.214844 256.117188 589.371094 255.035156 587.625 254.019531 C 575.132812 246.757812 562.683594 239.417969 550.226562 232.09375 C 533.429688 222.222656 516.636719 212.351562 499.847656 202.476562 C 498.488281 201.675781 497.289062 201.140625 495.53125 201.890625 C 488.335938 204.96875 481.949219 203.457031 476.511719 197.917969 C 475.539062 196.925781 474.578125 196.367188 473.164062 196.460938 C 468.511719 196.777344 463.851562 196.960938 459.203125 197.320312 C 446.082031 198.339844 432.96875 199.441406 419.847656 200.46875 C 409.644531 201.265625 399.429688 201.960938 389.226562 202.769531 C 373.921875 203.976562 358.625 205.261719 343.324219 206.484375 C 333.117188 207.296875 322.90625 208.039062 312.699219 208.84375 C 299.671875 209.867188 286.644531 210.917969 273.617188 211.960938 C 262.414062 212.859375 251.214844 213.773438 240.007812 214.644531 C 238.820312 214.738281 237.957031 215.019531 237.433594 216.242188 C 234.847656 222.296875 230.230469 225.789062 223.726562 226.679688 C 222.265625 226.878906 221.476562 227.574219 220.84375 228.8125 C 216.210938 237.84375 211.53125 246.847656 206.871094 255.863281 C 198.515625 272.03125 190.15625 288.195312 181.8125 304.367188 C 171.542969 324.273438 161.300781 344.199219 150.984375 364.082031 C 150.195312 365.605469 150.289062 366.730469 151.210938 368.097656 C 152.824219 370.496094 153.699219 373.238281 153.808594 376.09375 C 153.878906 377.980469 154.761719 378.796875 156.28125 379.5625 C 169.921875 386.425781 183.527344 393.359375 197.152344 400.253906 C 230.613281 417.179688 264.0625 434.117188 297.558594 450.972656 C 299.765625 452.078125 300.34375 453.269531 299.851562 455.652344 C 298.519531 462.089844 297.433594 468.578125 296.292969 475.054688 C 295.875 477.417969 299.640625 482.191406 302 482.328125 C 308.839844 482.726562 315.683594 483.179688 322.53125 483.414062 C 324.976562 483.5 326.808594 484.203125 328.542969 486.007812 C 342.898438 501.003906 357.351562 515.910156 371.761719 530.855469 C 385.351562 544.945312 398.917969 559.050781 412.507812 573.140625 C 414.800781 575.519531 417.152344 577.84375 419.929688 580.648438 C 419.929688 578.863281 419.964844 577.867188 419.925781 576.871094 C 419.601562 568.46875 419.234375 560.0625 418.941406 551.65625 C 418.367188 535.300781 417.828125 518.941406 417.273438 502.585938 C 416.703125 485.679688 416.089844 468.777344 415.59375 451.871094 C 415.535156 449.914062 414.914062 448.785156 413.246094 447.707031 C 407.082031 443.714844 404.550781 437.8125 405.8125 430.699219 C 407.039062 423.777344 411.410156 419.207031 418.328125 417.65625 C 425.316406 416.085938 431.230469 418.335938 435.410156 424.148438 C 436.941406 426.273438 438.507812 426.546875 440.746094 426.203125 C 449.140625 424.914062 457.546875 423.695312 465.949219 422.472656 C 484.296875 419.8125 502.648438 417.164062 521.46875 414.410156 M 429.78125 425.828125 C 429.121094 425.34375 428.488281 424.808594 427.792969 424.375 C 423.582031 421.742188 418.261719 422.21875 414.578125 425.527344 C 410.921875 428.816406 409.917969 434.382812 412.179688 438.847656 C 414.269531 442.972656 419.277344 445.378906 423.929688 444.597656 C 431.582031 443.316406 436.691406 433.59375 429.78125 425.828125 M 577.285156 408.332031 C 577.160156 409.894531 577.335938 411.417969 577.882812 412.902344 C 579.804688 418.132812 585.105469 421.214844 590.511719 420.222656 C 595.707031 419.273438 599.601562 414.351562 599.421875 408.957031 C 599.234375 403.394531 595.167969 399.101562 589.457031 398.445312 C 583.679688 397.78125 579.25 401.222656 577.285156 408.332031 M 275.15625 494.148438 C 276.785156 497.324219 279.234375 499.472656 282.789062 500.230469 C 287.664062 501.269531 292.558594 499.007812 294.804688 494.6875 C 297.199219 490.074219 296.367188 484.796875 292.710938 481.4375 C 288.855469 477.902344 283.4375 477.429688 279.113281 480.253906 C 274.703125 483.132812 273.199219 488.058594 275.15625 494.148438 M 429.457031 591.261719 C 428.816406 591.238281 428.175781 591.167969 427.539062 591.199219 C 421.667969 591.507812 416.855469 596.65625 416.996094 602.464844 C 417.136719 608.371094 422.074219 613.09375 428.101562 613.085938 C 433.703125 613.078125 438.390625 609.160156 439.089844 603.90625 C 439.910156 597.75 436.355469 592.867188 429.457031 591.261719 M 596.261719 261.386719 C 596.601562 262.128906 596.894531 262.902344 597.296875 263.613281 C 599.910156 268.234375 605.417969 270.28125 610.496094 268.539062 C 615.617188 266.785156 618.457031 261.691406 617.570312 255.851562 C 616.84375 251.089844 612.199219 247.199219 607.113281 247.09375 C 599.6875 246.941406 595.0625 252.765625 596.261719 261.386719 M 481.574219 195.082031 C 486.480469 198.890625 492.074219 198.835938 496.246094 194.933594 C 500.035156 191.390625 500.882812 184.996094 498.101562 180.917969 C 494.164062 175.144531 487.164062 174.042969 481.664062 178.398438 C 477.582031 181.628906 475.585938 189.445312 481.574219 195.082031 M 145.761719 370.050781 C 140.84375 364.832031 133.722656 364.480469 129.28125 369.234375 C 124.664062 374.175781 125.199219 381.464844 130.480469 385.640625 C 134.621094 388.914062 140.609375 388.648438 144.574219 385.019531 C 148.800781 381.152344 149.339844 375.65625 145.761719 370.050781 M 223.082031 199.285156 C 221.066406 199.203125 219.085938 199.25 217.214844 200.207031 C 212.257812 202.746094 209.886719 208.15625 211.523438 213.328125 C 213.28125 218.890625 218.261719 221.9375 224.058594 221 C 228.875 220.222656 232.9375 215.4375 233.105469 210.339844 C 233.28125 205.074219 229.121094 200.269531 223.082031 199.285156 Z M 223.082031 199.285156 " fill-opacity="1" fill-rule="nonzero"/><path fill="#afc8a0" d="M 299.699219 226.199219 C 301.621094 228.949219 304.171875 228.824219 306.921875 228.550781 C 316.375 227.609375 325.839844 226.78125 335.304688 225.9375 C 346.3125 224.953125 357.324219 224.011719 368.332031 223.027344 C 377.792969 222.179688 387.253906 221.304688 396.710938 220.4375 C 409.632812 219.253906 422.546875 218.050781 435.46875 216.882812 C 446.570312 215.878906 457.675781 214.925781 468.777344 213.9375 C 477.144531 213.195312 485.515625 212.460938 493.878906 211.664062 C 495.703125 211.488281 497.171875 211.917969 498.722656 212.964844 C 527.617188 232.433594 556.542969 251.855469 585.5 271.230469 C 587.210938 272.378906 587.660156 273.515625 587.230469 275.550781 C 582.070312 299.945312 576.996094 324.363281 571.921875 348.777344 C 569.5625 360.132812 567.171875 371.488281 564.980469 382.878906 C 564.507812 385.324219 563.363281 386.238281 561.0625 386.464844 C 551.878906 387.371094 542.707031 388.351562 533.527344 389.3125 C 520.71875 390.660156 507.90625 392.011719 495.097656 393.367188 C 482.015625 394.75 468.933594 396.144531 455.851562 397.519531 C 442.3125 398.945312 428.773438 400.351562 415.234375 401.769531 C 409.332031 402.386719 403.425781 403.003906 397.523438 403.644531 C 396.089844 403.800781 394.617188 403.804688 392.898438 404.589844 C 397.996094 456.082031 403.105469 507.636719 408.210938 559.214844 C 406.671875 559.449219 406.390625 558.351562 405.910156 557.707031 C 388.988281 535.074219 372.097656 512.417969 355.199219 489.761719 C 351.210938 484.410156 347.1875 479.082031 343.25 473.691406 C 342.21875 472.277344 341 471.429688 339.300781 471.007812 C 327.863281 468.164062 316.457031 465.210938 305.007812 462.414062 C 302.808594 461.875 302.203125 461.046875 302.847656 458.808594 C 305.039062 451.167969 307.054688 443.476562 309.136719 435.804688 C 309.417969 434.757812 309.679688 433.703125 310.015625 432.394531 C 305.035156 430.097656 300.171875 427.824219 295.277344 425.609375 C 257.703125 408.621094 220.125 391.648438 182.550781 374.667969 C 180.300781 373.652344 178.085938 372.542969 175.796875 371.625 C 173.839844 370.84375 173.386719 369.910156 174.488281 367.921875 C 184.382812 350.09375 194.203125 332.222656 204.035156 314.359375 C 213.335938 297.453125 222.628906 280.546875 231.925781 263.640625 C 232.984375 261.714844 233.992188 259.765625 235.113281 257.878906 C 236.9375 254.800781 238.292969 251.664062 238.808594 247.996094 C 239.550781 242.726562 243.769531 239.515625 249.007812 239.425781 C 254.097656 239.335938 258.289062 242.429688 259.640625 247.277344 C 261.746094 254.824219 255.929688 261.582031 247.773438 260.789062 C 245.652344 260.582031 244.6875 261.152344 243.726562 262.910156 C 226.953125 293.546875 210.128906 324.15625 193.308594 354.773438 C 191.378906 358.285156 189.429688 361.785156 187.523438 365.230469 C 188.519531 366.660156 189.917969 366.996094 191.125 367.542969 C 221.023438 381.09375 250.9375 394.609375 280.839844 408.148438 C 293.585938 413.914062 306.292969 419.765625 319.070312 425.464844 C 321.328125 426.472656 321.9375 427.457031 321.15625 429.988281 C 318.867188 437.40625 316.941406 444.9375 314.890625 452.425781 C 314.726562 453.027344 314.714844 453.667969 314.605469 454.5 C 317.945312 455.375 321.183594 456.242188 324.433594 457.070312 C 331.429688 458.851562 338.417969 460.660156 345.433594 462.347656 C 346.976562 462.71875 347.992188 463.46875 348.917969 464.714844 C 363.554688 484.375 378.230469 504.007812 392.902344 523.644531 C 393.277344 524.144531 393.683594 524.625 394.386719 525.503906 C 395.046875 521.644531 394.179688 518.28125 393.882812 514.941406 C 392.964844 504.570312 391.84375 494.21875 390.792969 483.859375 C 389.585938 471.957031 388.335938 460.058594 387.164062 448.15625 C 385.953125 435.882812 384.832031 423.597656 383.640625 411.324219 C 383.21875 406.960938 382.792969 402.597656 382.210938 398.257812 C 381.914062 396.058594 382.484375 395.175781 384.839844 394.941406 C 404.289062 393.015625 423.730469 390.988281 443.167969 388.933594 C 457.515625 387.417969 471.851562 385.765625 486.203125 384.257812 C 503.007812 382.488281 519.824219 380.828125 536.632812 379.074219 C 542.355469 378.476562 548.050781 377.667969 553.777344 377.101562 C 555.59375 376.917969 556.257812 376.0625 556.59375 374.410156 C 560.589844 354.820312 564.632812 335.234375 568.664062 315.648438 C 571.113281 303.753906 573.507812 291.847656 576.078125 279.980469 C 576.53125 277.875 575.910156 276.78125 574.265625 275.679688 C 548.507812 258.429688 522.753906 241.171875 497.0625 223.824219 C 494.59375 222.152344 492.242188 221.832031 489.351562 222.152344 C 480.453125 223.136719 471.519531 223.804688 462.597656 224.59375 C 449.128906 225.785156 435.660156 226.988281 422.1875 228.160156 C 410.261719 229.203125 398.332031 230.171875 386.410156 231.246094 C 372.035156 232.546875 357.664062 233.9375 343.292969 235.265625 C 333.921875 236.128906 324.542969 236.949219 315.171875 237.78125 C 312.53125 238.015625 309.894531 238.265625 307.25 238.4375 C 304.714844 238.605469 302.800781 239.304688 301.105469 241.632812 C 297.808594 246.152344 291.339844 246.8125 286.839844 243.652344 C 282.050781 240.289062 280.753906 234.152344 283.757812 229.050781 C 286.527344 224.347656 292.625 222.535156 297.660156 224.9375 C 298.316406 225.25 298.914062 225.691406 299.699219 226.199219 Z M 299.699219 226.199219 " fill-opacity="1" fill-rule="nonzero"/><path fill="#afc8a0" d="M 391.710938 256.898438 C 412.941406 254.664062 433.925781 252.476562 454.910156 250.273438 C 470.351562 248.652344 485.789062 247.015625 501.230469 245.363281 C 502.605469 245.21875 503.683594 245.597656 504.699219 246.558594 C 520.054688 261.066406 535.425781 275.558594 550.820312 290.023438 C 551.996094 291.128906 552.347656 292.210938 552.199219 293.871094 C 551.292969 304.0625 550.566406 314.269531 549.761719 324.46875 C 549.351562 329.660156 548.847656 334.847656 548.5 340.039062 C 548.351562 342.296875 547.457031 343.160156 545.097656 343.195312 C 524.15625 343.515625 503.21875 343.910156 482.277344 344.355469 C 458.507812 344.863281 434.738281 345.457031 410.96875 346 C 394.96875 346.367188 378.96875 346.738281 362.96875 347.023438 C 360.945312 347.058594 359.628906 347.394531 358.761719 349.527344 C 357.570312 352.449219 355.113281 354.304688 352.105469 355.261719 C 350.585938 355.746094 349.976562 356.535156 349.886719 358.1875 C 349.21875 370.417969 348.445312 382.640625 347.699219 394.863281 C 347.148438 403.890625 346.585938 412.914062 346.019531 421.941406 C 345.964844 422.851562 345.902344 423.773438 345.054688 424.660156 C 342.242188 423.253906 339.832031 421.15625 337.269531 419.316406 C 303.699219 395.207031 270.15625 371.054688 236.605469 346.910156 C 233.984375 345.023438 233.980469 344.839844 236.273438 342.71875 C 259.832031 320.914062 283.390625 299.117188 306.945312 277.308594 C 310.773438 273.765625 314.605469 270.230469 318.355469 266.609375 C 320.085938 264.9375 322.035156 264.125 324.429688 263.882812 C 339.785156 262.332031 355.128906 260.675781 370.480469 259.070312 C 377.472656 258.339844 384.46875 257.648438 391.710938 256.898438 M 509.945312 334.28125 C 510.402344 334.265625 510.859375 334.246094 511.316406 334.230469 C 519.90625 333.945312 528.507812 334.40625 537.089844 333.6875 C 538.332031 333.585938 539.449219 333.59375 539.582031 331.882812 C 540.472656 320.316406 541.402344 308.75 542.34375 297.1875 C 542.457031 295.800781 542.007812 294.742188 540.988281 293.785156 C 528.109375 281.714844 515.214844 269.664062 502.429688 257.492188 C 500.484375 255.640625 498.535156 255.183594 496.007812 255.472656 C 484.574219 256.773438 473.128906 257.996094 461.679688 259.183594 C 448.59375 260.539062 435.496094 261.777344 422.414062 263.160156 C 409.972656 264.480469 397.550781 266 385.105469 267.296875 C 366.210938 269.265625 347.300781 271.101562 328.402344 273.054688 C 326.730469 273.226562 325.046875 273.375 323.613281 274.722656 C 313.210938 284.484375 302.738281 294.167969 292.273438 303.863281 C 280.535156 314.738281 268.78125 325.59375 257.050781 336.472656 C 254.402344 338.933594 251.820312 341.464844 249.042969 344.121094 C 278.554688 365.355469 307.738281 386.355469 337.21875 407.566406 C 337.710938 400.796875 338.21875 394.53125 338.613281 388.257812 C 339.195312 378.957031 339.808594 369.65625 340.164062 360.34375 C 340.277344 357.464844 341.332031 354.453125 339.09375 351.660156 C 334.914062 346.429688 335.597656 338.65625 340.316406 334.847656 C 345.765625 330.449219 352.726562 331.054688 357.484375 336.390625 C 358.253906 337.253906 358.964844 337.820312 360.25 337.78125 C 370.027344 337.476562 379.804688 337.234375 389.585938 337.003906 C 406.402344 336.613281 423.21875 336.246094 440.035156 335.871094 C 458.136719 335.46875 476.238281 335.074219 494.34375 334.671875 C 499.371094 334.5625 504.40625 334.816406 509.945312 334.28125 Z M 509.945312 334.28125 " fill-opacity="1" fill-rule="nonzero"/><path fill="#afc8a0" d="M 433.109375 301.535156 C 412.917969 301.070312 393 300.277344 373.085938 299.386719 C 367.054688 299.113281 361.015625 299.09375 354.980469 298.914062 C 353.988281 298.882812 353.214844 299.273438 352.449219 299.789062 C 334.460938 311.878906 316.476562 323.96875 298.492188 336.0625 C 298.042969 336.367188 297.648438 336.75 297.246094 337.078125 C 297.253906 338.226562 298.144531 338.703125 298.742188 339.320312 C 300.90625 341.554688 303.199219 343.664062 305.308594 345.945312 C 307.644531 348.46875 309.800781 350.117188 313.875 349.835938 C 320.863281 349.359375 326.300781 355.710938 325.730469 362.386719 C 325.113281 369.59375 319.324219 374.28125 312.09375 373.429688 C 305.269531 372.621094 300.695312 366.421875 302.050781 359.363281 C 302.460938 357.21875 301.898438 355.972656 300.480469 354.578125 C 294.992188 349.199219 289.585938 343.734375 284.160156 338.296875 C 283.464844 337.597656 282.625 337 282.234375 335.800781 C 284.644531 333.421875 287.640625 331.828125 290.402344 329.960938 C 309.808594 316.863281 329.277344 303.859375 348.710938 290.796875 C 350.050781 289.894531 351.390625 289.398438 353.046875 289.464844 C 360.90625 289.78125 368.769531 289.816406 376.632812 290.117188 C 400.84375 291.046875 425.0625 291.734375 449.277344 292.554688 C 463.257812 293.023438 477.238281 293.554688 491.214844 294.078125 C 492.675781 294.132812 494.132812 294.28125 495.589844 294.425781 C 498.445312 294.710938 500.835938 294.515625 503.253906 292.191406 C 508.261719 287.371094 516.5625 288.523438 520.679688 294.105469 C 524.699219 299.558594 523.273438 307.519531 517.597656 311.273438 C 511.828125 315.085938 503.722656 313.230469 500.59375 306.972656 C 499.28125 304.351562 497.644531 303.773438 495.054688 303.6875 C 474.492188 303.027344 453.933594 302.269531 433.109375 301.535156 Z M 433.109375 301.535156 " fill-opacity="1" fill-rule="nonzero"/></svg>