<svg xmlns="http://www.w3.org/2000/svg" xmlns:xlink="http://www.w3.org/1999/xlink" width="1024" zoomAndPan="magnify" viewBox="0 0 768 225" height="300" preserveAspectRatio="xMidYMid meet" version="1.0"><defs><g/><clipPath id="78adbf6d86"><rect x="0" width="767" y="0" height="125"/></clipPath></defs><g transform="matrix(1, 0, 0, 1, 1, 50)"><g clip-path="url(#78adbf6d86)"><path fill="#afc8a0" d="M 327.71875 61.375 C 327.160156 59.023438 328.644531 56.996094 331.007812 56.855469 C 331.351562 56.832031 331.535156 56.707031 331.691406 56.410156 C 335.238281 49.53125 338.796875 42.65625 342.355469 35.78125 C 343.796875 32.992188 345.230469 30.199219 346.683594 27.414062 C 346.851562 27.09375 346.847656 26.878906 346.621094 26.570312 C 345.421875 24.929688 345.730469 22.726562 347.296875 21.550781 C 348.902344 20.34375 351.113281 20.648438 352.347656 22.285156 C 352.574219 22.585938 352.789062 22.644531 353.140625 22.621094 C 357.035156 22.320312 360.933594 22.046875 364.828125 21.742188 C 369.507812 21.378906 374.1875 20.984375 378.871094 20.617188 C 381.800781 20.386719 384.734375 20.203125 387.667969 19.96875 C 391.304688 19.683594 394.941406 19.367188 398.578125 19.074219 C 399.894531 18.964844 401.214844 18.863281 402.535156 18.800781 C 403.171875 18.769531 403.585938 18.640625 403.832031 17.917969 C 404.335938 16.433594 406.089844 15.550781 407.679688 15.832031 C 409.328125 16.121094 410.675781 17.527344 410.628906 19.128906 C 410.597656 20.050781 410.957031 20.472656 411.699219 20.90625 C 417.777344 24.4375 423.835938 28.007812 429.894531 31.570312 C 430.222656 31.761719 430.476562 31.835938 430.863281 31.625 C 432.632812 30.65625 434.84375 31.34375 435.746094 33.097656 C 436.679688 34.914062 435.972656 37.054688 434.117188 37.972656 C 433.8125 38.125 433.691406 38.308594 433.65625 38.648438 C 433.28125 42.097656 432.882812 45.546875 432.5 48.996094 C 432.167969 52.015625 431.851562 55.039062 431.519531 58.058594 C 431.304688 60.015625 431.078125 61.976562 430.84375 63.933594 C 430.796875 64.328125 430.867188 64.625 431.15625 64.941406 C 432.1875 66.078125 432.484375 67.390625 431.863281 68.832031 C 431.265625 70.226562 430.136719 70.921875 428.664062 70.992188 C 427.683594 71.035156 426.789062 70.679688 426.097656 69.960938 C 425.816406 69.671875 425.546875 69.59375 425.152344 69.652344 C 420.820312 70.285156 416.480469 70.890625 412.148438 71.519531 C 407.421875 72.203125 402.699219 72.902344 397.976562 73.59375 C 397.820312 73.617188 397.660156 73.636719 397.503906 73.644531 C 396.652344 73.699219 395.890625 73.847656 395.527344 74.796875 C 395.347656 75.257812 394.886719 75.566406 394.441406 75.769531 C 393.984375 75.972656 393.929688 76.285156 393.949219 76.714844 C 394.070312 79.316406 394.1875 81.921875 394.277344 84.523438 C 394.382812 87.5625 394.441406 90.605469 394.550781 93.644531 C 394.683594 97.453125 394.851562 101.257812 394.992188 105.066406 C 395.003906 105.453125 395.128906 105.652344 395.492188 105.820312 C 397.265625 106.640625 398.027344 108.585938 397.308594 110.386719 C 396.621094 112.121094 394.683594 113.050781 392.945312 112.480469 C 391.058594 111.855469 389.964844 110 390.597656 108.125 C 390.921875 107.175781 390.640625 106.675781 390.027344 106.050781 C 386.578125 102.519531 383.160156 98.957031 379.730469 95.402344 C 376.875 92.445312 374.019531 89.496094 371.175781 86.527344 C 370.878906 86.21875 370.570312 86.085938 370.140625 86.078125 C 369.097656 86.058594 368.050781 86.011719 367.007812 85.933594 C 366.628906 85.90625 366.453125 86.027344 366.277344 86.351562 C 365.46875 87.839844 364.007812 88.535156 362.417969 88.230469 C 360.886719 87.933594 359.765625 86.707031 359.542969 85.082031 C 359.316406 83.421875 360.496094 81.683594 362.175781 81.289062 C 362.695312 81.167969 362.949219 80.976562 362.988281 80.417969 C 363.023438 79.851562 363.160156 79.289062 363.289062 78.730469 C 363.378906 78.355469 363.253906 78.175781 362.914062 78.003906 C 360.089844 76.59375 357.273438 75.160156 354.453125 73.734375 C 349.359375 71.15625 344.265625 68.578125 339.175781 66.003906 C 337.5 65.15625 335.820312 64.320312 334.15625 63.457031 C 333.730469 63.238281 333.40625 63.230469 332.964844 63.484375 C 330.871094 64.683594 328.476562 63.722656 327.71875 61.375 M 414.144531 68.507812 C 417.601562 68.019531 421.058594 67.527344 424.519531 67.042969 C 424.84375 66.996094 425.0625 66.871094 425.148438 66.527344 C 425.488281 65.179688 426.367188 64.347656 427.683594 63.964844 C 427.988281 63.875 428.132812 63.722656 428.171875 63.394531 C 428.296875 62.257812 428.472656 61.128906 428.597656 59.992188 C 429.011719 56.1875 429.40625 52.382812 429.824219 48.582031 C 430.191406 45.230469 430.578125 41.878906 430.964844 38.53125 C 431.007812 38.183594 430.925781 37.945312 430.609375 37.738281 C 429.554688 37.046875 429.046875 36.023438 429.007812 34.789062 C 428.992188 34.324219 428.808594 34.089844 428.433594 33.871094 C 425.734375 32.300781 423.046875 30.714844 420.355469 29.136719 C 416.730469 27.003906 413.101562 24.871094 409.476562 22.738281 C 409.183594 22.566406 408.925781 22.449219 408.542969 22.613281 C 406.992188 23.277344 405.609375 22.949219 404.4375 21.753906 C 404.226562 21.539062 404.019531 21.417969 403.714844 21.441406 C 402.710938 21.507812 401.703125 21.546875 400.699219 21.625 C 397.867188 21.84375 395.035156 22.082031 392.199219 22.304688 C 389.996094 22.476562 387.789062 22.628906 385.585938 22.800781 C 382.28125 23.0625 378.976562 23.339844 375.671875 23.605469 C 373.46875 23.78125 371.265625 23.941406 369.058594 24.113281 C 366.246094 24.335938 363.433594 24.5625 360.621094 24.785156 C 358.199219 24.980469 355.78125 25.179688 353.363281 25.367188 C 353.105469 25.386719 352.917969 25.449219 352.804688 25.710938 C 352.246094 27.019531 351.25 27.773438 349.84375 27.964844 C 349.53125 28.007812 349.359375 28.160156 349.222656 28.425781 C 348.222656 30.375 347.210938 32.320312 346.207031 34.269531 C 344.402344 37.757812 342.597656 41.25 340.792969 44.742188 C 338.574219 49.042969 336.363281 53.34375 334.136719 57.640625 C 333.964844 57.96875 333.984375 58.210938 334.183594 58.507812 C 334.53125 59.023438 334.722656 59.617188 334.746094 60.234375 C 334.761719 60.640625 334.953125 60.816406 335.28125 60.980469 C 338.226562 62.464844 341.164062 63.960938 344.105469 65.449219 C 351.332031 69.105469 358.558594 72.765625 365.789062 76.402344 C 366.265625 76.644531 366.390625 76.898438 366.285156 77.414062 C 365.996094 78.804688 365.761719 80.207031 365.515625 81.605469 C 365.425781 82.113281 366.238281 83.144531 366.75 83.175781 C 368.226562 83.261719 369.703125 83.359375 371.183594 83.410156 C 371.710938 83.429688 372.109375 83.578125 372.480469 83.96875 C 375.582031 87.207031 378.703125 90.429688 381.816406 93.65625 C 384.75 96.699219 387.679688 99.746094 390.613281 102.789062 C 391.109375 103.300781 391.617188 103.804688 392.21875 104.410156 C 392.21875 104.023438 392.226562 103.808594 392.214844 103.59375 C 392.148438 101.777344 392.066406 99.964844 392.003906 98.148438 C 391.878906 94.617188 391.765625 91.082031 391.644531 87.550781 C 391.519531 83.898438 391.386719 80.25 391.28125 76.597656 C 391.269531 76.175781 391.132812 75.929688 390.773438 75.699219 C 389.441406 74.835938 388.898438 73.5625 389.167969 72.027344 C 389.433594 70.53125 390.378906 69.542969 391.871094 69.207031 C 393.378906 68.871094 394.65625 69.355469 395.5625 70.609375 C 395.890625 71.070312 396.230469 71.128906 396.714844 71.054688 C 398.527344 70.777344 400.339844 70.511719 402.15625 70.25 C 406.117188 69.675781 410.082031 69.101562 414.144531 68.507812 M 394.34375 70.972656 C 394.203125 70.867188 394.066406 70.753906 393.914062 70.660156 C 393.007812 70.089844 391.859375 70.195312 391.0625 70.910156 C 390.273438 71.617188 390.054688 72.820312 390.542969 73.785156 C 390.996094 74.675781 392.078125 75.195312 393.082031 75.027344 C 394.734375 74.75 395.835938 72.652344 394.34375 70.972656 M 426.199219 67.195312 C 426.171875 67.53125 426.210938 67.863281 426.328125 68.183594 C 426.742188 69.3125 427.890625 69.976562 429.058594 69.761719 C 430.179688 69.558594 431.019531 68.496094 430.980469 67.332031 C 430.941406 66.128906 430.0625 65.203125 428.828125 65.058594 C 427.582031 64.917969 426.625 65.660156 426.199219 67.195312 M 360.953125 85.726562 C 361.304688 86.414062 361.832031 86.878906 362.601562 87.042969 C 363.652344 87.265625 364.710938 86.777344 365.195312 85.84375 C 365.714844 84.847656 365.53125 83.707031 364.742188 82.984375 C 363.910156 82.21875 362.742188 82.117188 361.808594 82.726562 C 360.855469 83.347656 360.53125 84.414062 360.953125 85.726562 M 394.273438 106.699219 C 394.136719 106.695312 394 106.679688 393.859375 106.6875 C 392.59375 106.753906 391.554688 107.867188 391.585938 109.121094 C 391.613281 110.394531 392.679688 111.414062 393.980469 111.414062 C 395.191406 111.414062 396.203125 110.566406 396.355469 109.433594 C 396.53125 108.101562 395.765625 107.046875 394.273438 106.699219 M 430.296875 35.460938 C 430.371094 35.621094 430.433594 35.789062 430.523438 35.941406 C 431.085938 36.9375 432.277344 37.382812 433.371094 37.003906 C 434.480469 36.625 435.089844 35.527344 434.898438 34.265625 C 434.742188 33.238281 433.738281 32.398438 432.640625 32.375 C 431.039062 32.339844 430.039062 33.597656 430.296875 35.460938 M 405.53125 21.140625 C 406.589844 21.964844 407.796875 21.953125 408.699219 21.109375 C 409.515625 20.34375 409.699219 18.964844 409.097656 18.082031 C 408.25 16.835938 406.738281 16.597656 405.550781 17.539062 C 404.667969 18.234375 404.238281 19.925781 405.53125 21.140625 M 333.007812 58.925781 C 331.945312 57.800781 330.40625 57.726562 329.449219 58.75 C 328.453125 59.820312 328.566406 61.394531 329.707031 62.292969 C 330.601562 63 331.894531 62.945312 332.75 62.160156 C 333.664062 61.324219 333.78125 60.136719 333.007812 58.925781 M 349.707031 22.050781 C 349.269531 22.03125 348.84375 22.042969 348.4375 22.25 C 347.367188 22.796875 346.855469 23.964844 347.210938 25.082031 C 347.589844 26.28125 348.664062 26.941406 349.917969 26.738281 C 350.957031 26.570312 351.835938 25.539062 351.871094 24.4375 C 351.910156 23.300781 351.011719 22.261719 349.707031 22.050781 Z M 349.707031 22.050781 " fill-opacity="1" fill-rule="nonzero"/><path fill="#afc8a0" d="M 366.253906 27.863281 C 366.667969 28.457031 367.21875 28.429688 367.8125 28.371094 C 369.855469 28.167969 371.898438 27.988281 373.941406 27.804688 C 376.320312 27.59375 378.695312 27.390625 381.074219 27.175781 C 383.117188 26.992188 385.160156 26.804688 387.203125 26.617188 C 389.992188 26.363281 392.78125 26.101562 395.574219 25.851562 C 397.96875 25.632812 400.367188 25.425781 402.765625 25.214844 C 404.574219 25.054688 406.382812 24.894531 408.1875 24.722656 C 408.582031 24.683594 408.898438 24.777344 409.234375 25.003906 C 415.472656 29.207031 421.722656 33.402344 427.972656 37.585938 C 428.34375 37.835938 428.441406 38.082031 428.347656 38.519531 C 427.234375 43.789062 426.136719 49.0625 425.042969 54.332031 C 424.53125 56.785156 424.015625 59.238281 423.542969 61.699219 C 423.441406 62.226562 423.191406 62.425781 422.695312 62.472656 C 420.714844 62.667969 418.730469 62.878906 416.75 63.089844 C 413.984375 63.378906 411.21875 63.671875 408.449219 63.964844 C 405.625 64.261719 402.800781 64.5625 399.976562 64.859375 C 397.050781 65.167969 394.128906 65.472656 391.203125 65.777344 C 389.929688 65.910156 388.652344 66.042969 387.378906 66.183594 C 387.070312 66.21875 386.75 66.21875 386.378906 66.386719 C 387.480469 77.507812 388.582031 88.640625 389.6875 99.78125 C 389.355469 99.832031 389.292969 99.59375 389.191406 99.453125 C 385.535156 94.566406 381.886719 89.671875 378.238281 84.78125 C 377.375 83.625 376.507812 82.472656 375.65625 81.308594 C 375.433594 81.003906 375.171875 80.820312 374.804688 80.730469 C 372.335938 80.117188 369.871094 79.476562 367.398438 78.875 C 366.925781 78.757812 366.792969 78.578125 366.933594 78.097656 C 367.40625 76.445312 367.839844 74.785156 368.289062 73.128906 C 368.351562 72.902344 368.40625 72.675781 368.480469 72.390625 C 367.40625 71.894531 366.355469 71.40625 365.296875 70.925781 C 357.183594 67.257812 349.066406 63.59375 340.953125 59.925781 C 340.46875 59.707031 339.988281 59.464844 339.496094 59.269531 C 339.070312 59.097656 338.972656 58.898438 339.210938 58.46875 C 341.347656 54.617188 343.46875 50.757812 345.59375 46.902344 C 347.601562 43.25 349.609375 39.597656 351.617188 35.945312 C 351.84375 35.53125 352.0625 35.109375 352.304688 34.703125 C 352.699219 34.039062 352.992188 33.359375 353.101562 32.570312 C 353.261719 31.429688 354.171875 30.738281 355.304688 30.71875 C 356.40625 30.699219 357.308594 31.367188 357.601562 32.414062 C 358.054688 34.042969 356.800781 35.503906 355.039062 35.332031 C 354.582031 35.285156 354.371094 35.410156 354.164062 35.789062 C 350.542969 42.40625 346.910156 49.015625 343.277344 55.628906 C 342.859375 56.386719 342.4375 57.144531 342.027344 57.886719 C 342.242188 58.195312 342.542969 58.269531 342.804688 58.386719 C 349.261719 61.3125 355.722656 64.230469 362.179688 67.15625 C 364.933594 68.402344 367.675781 69.664062 370.4375 70.894531 C 370.921875 71.113281 371.054688 71.324219 370.886719 71.871094 C 370.390625 73.472656 369.976562 75.101562 369.535156 76.71875 C 369.5 76.847656 369.496094 76.984375 369.472656 77.164062 C 370.191406 77.355469 370.890625 77.542969 371.59375 77.722656 C 373.105469 78.105469 374.613281 78.496094 376.128906 78.859375 C 376.460938 78.941406 376.679688 79.101562 376.882812 79.371094 C 380.042969 83.617188 383.210938 87.855469 386.378906 92.097656 C 386.460938 92.207031 386.550781 92.308594 386.703125 92.5 C 386.84375 91.667969 386.65625 90.941406 386.59375 90.21875 C 386.394531 87.980469 386.152344 85.742188 385.925781 83.507812 C 385.664062 80.9375 385.394531 78.367188 385.140625 75.796875 C 384.878906 73.144531 384.636719 70.492188 384.378906 67.839844 C 384.289062 66.898438 384.199219 65.957031 384.070312 65.019531 C 384.007812 64.546875 384.132812 64.355469 384.640625 64.304688 C 388.839844 63.886719 393.039062 63.449219 397.234375 63.007812 C 400.335938 62.679688 403.429688 62.320312 406.53125 61.996094 C 410.160156 61.613281 413.792969 61.253906 417.421875 60.875 C 418.65625 60.746094 419.886719 60.574219 421.125 60.449219 C 421.515625 60.410156 421.660156 60.226562 421.730469 59.871094 C 422.59375 55.636719 423.46875 51.410156 424.339844 47.179688 C 424.867188 44.609375 425.382812 42.039062 425.9375 39.476562 C 426.039062 39.023438 425.902344 38.785156 425.546875 38.546875 C 419.984375 34.824219 414.421875 31.09375 408.875 27.347656 C 408.339844 26.988281 407.835938 26.917969 407.210938 26.988281 C 405.289062 27.199219 403.359375 27.34375 401.433594 27.515625 C 398.523438 27.773438 395.613281 28.03125 392.707031 28.285156 C 390.128906 28.511719 387.554688 28.71875 384.980469 28.953125 C 381.875 29.234375 378.769531 29.535156 375.667969 29.820312 C 373.644531 30.007812 371.617188 30.183594 369.59375 30.363281 C 369.023438 30.414062 368.453125 30.46875 367.882812 30.503906 C 367.335938 30.539062 366.921875 30.691406 366.554688 31.195312 C 365.84375 32.171875 364.449219 32.3125 363.476562 31.632812 C 362.441406 30.90625 362.160156 29.578125 362.808594 28.476562 C 363.40625 27.460938 364.726562 27.070312 365.8125 27.589844 C 365.953125 27.65625 366.082031 27.75 366.253906 27.863281 Z M 366.253906 27.863281 " fill-opacity="1" fill-rule="nonzero"/><path fill="#afc8a0" d="M 386.125 34.492188 C 390.707031 34.007812 395.238281 33.535156 399.773438 33.058594 C 403.105469 32.710938 406.441406 32.355469 409.773438 32 C 410.074219 31.96875 410.304688 32.050781 410.523438 32.257812 C 413.839844 35.390625 417.160156 38.523438 420.484375 41.644531 C 420.738281 41.882812 420.816406 42.117188 420.78125 42.476562 C 420.585938 44.675781 420.429688 46.882812 420.257812 49.085938 C 420.167969 50.207031 420.058594 51.324219 419.984375 52.445312 C 419.953125 52.933594 419.757812 53.121094 419.25 53.128906 C 414.726562 53.195312 410.203125 53.28125 405.683594 53.378906 C 400.550781 53.488281 395.414062 53.617188 390.28125 53.734375 C 386.828125 53.8125 383.371094 53.894531 379.917969 53.953125 C 379.480469 53.960938 379.195312 54.035156 379.007812 54.496094 C 378.75 55.125 378.21875 55.527344 377.570312 55.734375 C 377.242188 55.839844 377.109375 56.007812 377.089844 56.367188 C 376.945312 59.007812 376.78125 61.648438 376.617188 64.285156 C 376.5 66.234375 376.378906 68.183594 376.257812 70.132812 C 376.242188 70.332031 376.230469 70.53125 376.046875 70.722656 C 375.441406 70.417969 374.917969 69.964844 374.367188 69.566406 C 367.117188 64.359375 359.871094 59.144531 352.628906 53.929688 C 352.0625 53.523438 352.058594 53.484375 352.554688 53.023438 C 357.640625 48.316406 362.730469 43.609375 367.816406 38.898438 C 368.644531 38.132812 369.472656 37.371094 370.28125 36.589844 C 370.65625 36.226562 371.074219 36.050781 371.59375 36 C 374.910156 35.664062 378.222656 35.308594 381.539062 34.960938 C 383.046875 34.804688 384.558594 34.652344 386.125 34.492188 M 411.65625 51.203125 C 411.753906 51.199219 411.855469 51.195312 411.953125 51.191406 C 413.808594 51.128906 415.667969 51.230469 417.519531 51.074219 C 417.789062 51.050781 418.027344 51.054688 418.058594 50.683594 C 418.25 48.1875 418.453125 45.691406 418.65625 43.191406 C 418.679688 42.890625 418.582031 42.664062 418.363281 42.457031 C 415.582031 39.851562 412.796875 37.25 410.035156 34.621094 C 409.613281 34.21875 409.191406 34.121094 408.648438 34.183594 C 406.179688 34.464844 403.707031 34.730469 401.234375 34.984375 C 398.40625 35.277344 395.578125 35.542969 392.753906 35.84375 C 390.066406 36.128906 387.386719 36.457031 384.695312 36.738281 C 380.617188 37.164062 376.53125 37.558594 372.453125 37.980469 C 372.089844 38.019531 371.726562 38.050781 371.417969 38.339844 C 369.171875 40.449219 366.910156 42.539062 364.648438 44.632812 C 362.113281 46.984375 359.574219 49.328125 357.042969 51.675781 C 356.46875 52.207031 355.914062 52.753906 355.3125 53.328125 C 361.6875 57.914062 367.988281 62.449219 374.355469 67.03125 C 374.460938 65.566406 374.570312 64.214844 374.65625 62.859375 C 374.78125 60.851562 374.914062 58.84375 374.992188 56.832031 C 375.015625 56.210938 375.242188 55.558594 374.761719 54.957031 C 373.855469 53.828125 374.003906 52.148438 375.023438 51.324219 C 376.199219 50.375 377.703125 50.507812 378.730469 51.660156 C 378.898438 51.84375 379.050781 51.96875 379.328125 51.960938 C 381.441406 51.894531 383.550781 51.839844 385.664062 51.792969 C 389.296875 51.707031 392.929688 51.628906 396.558594 51.546875 C 400.46875 51.460938 404.378906 51.375 408.289062 51.289062 C 409.375 51.265625 410.460938 51.320312 411.65625 51.203125 Z M 411.65625 51.203125 " fill-opacity="1" fill-rule="nonzero"/><path fill="#afc8a0" d="M 395.0625 44.132812 C 390.703125 44.03125 386.402344 43.859375 382.101562 43.667969 C 380.800781 43.609375 379.496094 43.605469 378.191406 43.566406 C 377.976562 43.558594 377.808594 43.644531 377.644531 43.753906 C 373.761719 46.363281 369.875 48.976562 365.992188 51.589844 C 365.894531 51.652344 365.808594 51.734375 365.722656 51.808594 C 365.722656 52.054688 365.917969 52.15625 366.046875 52.292969 C 366.511719 52.773438 367.007812 53.230469 367.464844 53.722656 C 367.96875 54.265625 368.433594 54.621094 369.3125 54.5625 C 370.824219 54.460938 371.996094 55.832031 371.875 57.273438 C 371.742188 58.828125 370.492188 59.839844 368.929688 59.65625 C 367.457031 59.484375 366.46875 58.144531 366.761719 56.621094 C 366.847656 56.15625 366.726562 55.886719 366.421875 55.585938 C 365.234375 54.425781 364.070312 53.246094 362.894531 52.070312 C 362.746094 51.917969 362.566406 51.789062 362.480469 51.53125 C 363 51.019531 363.648438 50.671875 364.246094 50.269531 C 368.4375 47.441406 372.640625 44.632812 376.835938 41.8125 C 377.125 41.617188 377.414062 41.511719 377.773438 41.523438 C 379.46875 41.59375 381.167969 41.601562 382.867188 41.664062 C 388.097656 41.867188 393.324219 42.015625 398.554688 42.191406 C 401.574219 42.292969 404.59375 42.410156 407.613281 42.519531 C 407.929688 42.53125 408.242188 42.566406 408.558594 42.597656 C 409.171875 42.65625 409.691406 42.617188 410.210938 42.113281 C 411.292969 41.074219 413.085938 41.320312 413.976562 42.527344 C 414.84375 43.703125 414.535156 45.421875 413.308594 46.234375 C 412.0625 47.058594 410.3125 46.65625 409.636719 45.304688 C 409.355469 44.738281 409 44.613281 408.441406 44.597656 C 404 44.453125 399.5625 44.289062 395.0625 44.132812 Z M 395.0625 44.132812 " fill-opacity="1" fill-rule="nonzero"/><g fill="#006d8f" fill-opacity="1"><g transform="translate(0.493036, 99.695638)"><g><path d="M 47.4375 -18.78125 C 47.4375 -15.875 46.898438 -13.175781 45.828125 -10.6875 C 44.753906 -8.195312 43.265625 -6.015625 41.359375 -4.140625 C 39.460938 -2.273438 37.160156 -0.828125 34.453125 0.203125 C 31.753906 1.242188 28.75 1.765625 25.4375 1.765625 C 22.175781 1.765625 19.195312 1.28125 16.5 0.3125 C 13.800781 -0.65625 11.5 -2.003906 9.59375 -3.734375 C 7.695312 -5.460938 6.226562 -7.519531 5.1875 -9.90625 C 4.15625 -12.300781 3.640625 -14.878906 3.640625 -17.640625 L 3.640625 -20.96875 L 14.53125 -20.96875 L 14.53125 -19.828125 C 14.53125 -11.660156 18.265625 -7.578125 25.734375 -7.578125 C 29.265625 -7.578125 31.910156 -8.507812 33.671875 -10.375 C 35.441406 -12.25 36.328125 -14.640625 36.328125 -17.546875 C 36.328125 -18.992188 36.117188 -20.285156 35.703125 -21.421875 C 35.285156 -22.566406 34.59375 -23.660156 33.625 -24.703125 C 32.65625 -25.742188 31.304688 -26.78125 29.578125 -27.8125 C 27.847656 -28.851562 25.703125 -29.960938 23.140625 -31.140625 C 20.859375 -32.179688 18.59375 -33.335938 16.34375 -34.609375 C 14.09375 -35.890625 12.101562 -37.34375 10.375 -38.96875 C 8.644531 -40.601562 7.242188 -42.472656 6.171875 -44.578125 C 5.097656 -46.691406 4.5625 -49.132812 4.5625 -51.90625 C 4.5625 -54.457031 5.03125 -56.890625 5.96875 -59.203125 C 6.90625 -61.523438 8.253906 -63.535156 10.015625 -65.234375 C 11.773438 -66.929688 13.9375 -68.28125 16.5 -69.28125 C 19.0625 -70.289062 22.003906 -70.796875 25.328125 -70.796875 C 28.578125 -70.796875 31.535156 -70.3125 34.203125 -69.34375 C 36.867188 -68.375 39.132812 -67.019531 41 -65.28125 C 42.863281 -63.550781 44.296875 -61.492188 45.296875 -59.109375 C 46.304688 -56.722656 46.8125 -54.144531 46.8125 -51.375 L 46.8125 -48.6875 L 36.21875 -48.6875 L 36.21875 -49.828125 C 36.21875 -51.410156 36.007812 -52.910156 35.59375 -54.328125 C 35.1875 -55.753906 34.53125 -57.003906 33.625 -58.078125 C 32.726562 -59.148438 31.570312 -59.992188 30.15625 -60.609375 C 28.738281 -61.234375 27.023438 -61.546875 25.015625 -61.546875 C 21.828125 -61.546875 19.453125 -60.710938 17.890625 -59.046875 C 16.335938 -57.390625 15.5625 -55.351562 15.5625 -52.9375 C 15.5625 -51.550781 15.769531 -50.320312 16.1875 -49.25 C 16.601562 -48.175781 17.363281 -47.132812 18.46875 -46.125 C 19.582031 -45.125 21.085938 -44.085938 22.984375 -43.015625 C 24.890625 -41.953125 27.332031 -40.691406 30.3125 -39.234375 C 33.351562 -37.785156 35.945312 -36.347656 38.09375 -34.921875 C 40.238281 -33.503906 42.003906 -31.984375 43.390625 -30.359375 C 44.773438 -28.734375 45.796875 -26.984375 46.453125 -25.109375 C 47.109375 -23.242188 47.4375 -21.132812 47.4375 -18.78125 Z M 47.4375 -18.78125 "/></g></g></g><g fill="#006d8f" fill-opacity="1"><g transform="translate(51.55824, 99.695638)"><g><path d="M 6.4375 0 L 6.4375 -69.125 L 43.796875 -69.125 L 43.796875 -59.265625 L 17.4375 -59.265625 L 17.4375 -41.109375 L 36.4375 -41.109375 L 36.4375 -31.765625 L 17.4375 -31.765625 L 17.4375 -9.859375 L 43.796875 -9.859375 L 43.796875 0 Z M 6.4375 0 "/></g></g></g><g fill="#006d8f" fill-opacity="1"><g transform="translate(98.783175, 99.695638)"><g><path d="M 49.609375 -18.578125 C 49.609375 -15.804688 49.191406 -13.191406 48.359375 -10.734375 C 47.535156 -8.285156 46.238281 -6.125 44.46875 -4.25 C 42.707031 -2.382812 40.441406 -0.914062 37.671875 0.15625 C 34.910156 1.226562 31.59375 1.765625 27.71875 1.765625 C 23.84375 1.765625 20.503906 1.160156 17.703125 -0.046875 C 14.898438 -1.265625 12.582031 -2.859375 10.75 -4.828125 C 8.914062 -6.796875 7.5625 -9.078125 6.6875 -11.671875 C 5.820312 -14.265625 5.390625 -16.984375 5.390625 -19.828125 L 5.390625 -49.296875 C 5.390625 -52.066406 5.820312 -54.75 6.6875 -57.34375 C 7.5625 -59.9375 8.914062 -62.238281 10.75 -64.25 C 12.582031 -66.257812 14.898438 -67.851562 17.703125 -69.03125 C 20.503906 -70.207031 23.84375 -70.796875 27.71875 -70.796875 C 31.59375 -70.796875 34.910156 -70.257812 37.671875 -69.1875 C 40.441406 -68.113281 42.707031 -66.660156 44.46875 -64.828125 C 46.238281 -62.992188 47.535156 -60.847656 48.359375 -58.390625 C 49.191406 -55.929688 49.609375 -53.316406 49.609375 -50.546875 L 49.609375 -44.9375 L 39.65625 -44.9375 L 39.65625 -49.828125 C 39.65625 -53.347656 38.703125 -56.128906 36.796875 -58.171875 C 34.890625 -60.210938 31.96875 -61.234375 28.03125 -61.234375 C 24.082031 -61.234375 21.15625 -60.210938 19.25 -58.171875 C 17.351562 -56.128906 16.40625 -53.519531 16.40625 -50.34375 L 16.40625 -18.6875 C 16.40625 -15.570312 17.351562 -12.992188 19.25 -10.953125 C 21.15625 -8.910156 24.082031 -7.890625 28.03125 -7.890625 C 31.96875 -7.890625 34.890625 -8.910156 36.796875 -10.953125 C 38.703125 -12.992188 39.65625 -15.78125 39.65625 -19.3125 L 39.65625 -24.1875 L 49.609375 -24.1875 Z M 49.609375 -18.578125 "/></g></g></g><g fill="#006d8f" fill-opacity="1"><g transform="translate(152.027998, 99.695638)"><g><path d="M 50.03125 -20.65625 C 50.03125 -17.46875 49.597656 -14.507812 48.734375 -11.78125 C 47.867188 -9.050781 46.519531 -6.679688 44.6875 -4.671875 C 42.851562 -2.660156 40.535156 -1.085938 37.734375 0.046875 C 34.929688 1.191406 31.59375 1.765625 27.71875 1.765625 C 23.84375 1.765625 20.503906 1.191406 17.703125 0.046875 C 14.898438 -1.085938 12.582031 -2.660156 10.75 -4.671875 C 8.914062 -6.679688 7.5625 -9.050781 6.6875 -11.78125 C 5.820312 -14.507812 5.390625 -17.46875 5.390625 -20.65625 L 5.390625 -48.46875 C 5.390625 -51.65625 5.820312 -54.597656 6.6875 -57.296875 C 7.5625 -59.992188 8.914062 -62.34375 10.75 -64.34375 C 12.582031 -66.351562 14.898438 -67.929688 17.703125 -69.078125 C 20.503906 -70.222656 23.84375 -70.796875 27.71875 -70.796875 C 31.59375 -70.796875 34.929688 -70.222656 37.734375 -69.078125 C 40.535156 -67.929688 42.851562 -66.351562 44.6875 -64.34375 C 46.519531 -62.34375 47.867188 -59.992188 48.734375 -57.296875 C 49.597656 -54.597656 50.03125 -51.65625 50.03125 -48.46875 Z M 39.03125 -49.203125 C 39.03125 -52.734375 38.128906 -55.617188 36.328125 -57.859375 C 34.523438 -60.109375 31.65625 -61.234375 27.71875 -61.234375 C 23.84375 -61.234375 21.003906 -60.109375 19.203125 -57.859375 C 17.398438 -55.617188 16.5 -52.734375 16.5 -49.203125 L 16.5 -19.921875 C 16.5 -16.398438 17.398438 -13.515625 19.203125 -11.265625 C 21.003906 -9.015625 23.84375 -7.890625 27.71875 -7.890625 C 31.65625 -7.890625 34.523438 -9.015625 36.328125 -11.265625 C 38.128906 -13.515625 39.03125 -16.398438 39.03125 -19.921875 Z M 39.03125 -49.203125 "/></g></g></g><g fill="#006d8f" fill-opacity="1"><g transform="translate(207.452428, 99.695638)"><g><path d="M 43.703125 0 L 23.875 -33 L 16.8125 -45.671875 L 16.8125 0 L 6.4375 0 L 6.4375 -69.125 L 14.953125 -69.125 L 34.25 -35.5 L 41 -22.828125 L 41 -69.125 L 51.375 -69.125 L 51.375 0 Z M 43.703125 0 "/></g></g></g><g fill="#006d8f" fill-opacity="1"><g transform="translate(265.264046, 99.695638)"><g><path d="M 50.453125 -20.34375 C 50.453125 -17.507812 50.035156 -14.863281 49.203125 -12.40625 C 48.367188 -9.945312 47.066406 -7.800781 45.296875 -5.96875 C 43.535156 -4.132812 41.304688 -2.679688 38.609375 -1.609375 C 35.910156 -0.535156 32.726562 0 29.0625 0 L 6.4375 0 L 6.4375 -69.125 L 29.0625 -69.125 C 32.726562 -69.125 35.910156 -68.585938 38.609375 -67.515625 C 41.304688 -66.441406 43.535156 -64.988281 45.296875 -63.15625 C 47.066406 -61.320312 48.367188 -59.160156 49.203125 -56.671875 C 50.035156 -54.179688 50.453125 -51.550781 50.453125 -48.78125 Z M 39.4375 -47.640625 C 39.4375 -51.304688 38.535156 -54.160156 36.734375 -56.203125 C 34.941406 -58.242188 32.070312 -59.265625 28.125 -59.265625 L 17.4375 -59.265625 L 17.4375 -9.859375 L 28.125 -9.859375 C 32.070312 -9.859375 34.941406 -10.878906 36.734375 -12.921875 C 38.535156 -14.960938 39.4375 -17.78125 39.4375 -21.375 Z M 39.4375 -47.640625 "/></g></g></g><g fill="#006d8f" fill-opacity="1"><g transform="translate(447.130468, 99.695638)"><g><path d="M 49.609375 -18.578125 C 49.609375 -15.804688 49.191406 -13.191406 48.359375 -10.734375 C 47.535156 -8.285156 46.238281 -6.125 44.46875 -4.25 C 42.707031 -2.382812 40.441406 -0.914062 37.671875 0.15625 C 34.910156 1.226562 31.59375 1.765625 27.71875 1.765625 C 23.84375 1.765625 20.503906 1.160156 17.703125 -0.046875 C 14.898438 -1.265625 12.582031 -2.859375 10.75 -4.828125 C 8.914062 -6.796875 7.5625 -9.078125 6.6875 -11.671875 C 5.820312 -14.265625 5.390625 -16.984375 5.390625 -19.828125 L 5.390625 -49.296875 C 5.390625 -52.066406 5.820312 -54.75 6.6875 -57.34375 C 7.5625 -59.9375 8.914062 -62.238281 10.75 -64.25 C 12.582031 -66.257812 14.898438 -67.851562 17.703125 -69.03125 C 20.503906 -70.207031 23.84375 -70.796875 27.71875 -70.796875 C 31.59375 -70.796875 34.910156 -70.257812 37.671875 -69.1875 C 40.441406 -68.113281 42.707031 -66.660156 44.46875 -64.828125 C 46.238281 -62.992188 47.535156 -60.847656 48.359375 -58.390625 C 49.191406 -55.929688 49.609375 -53.316406 49.609375 -50.546875 L 49.609375 -44.9375 L 39.65625 -44.9375 L 39.65625 -49.828125 C 39.65625 -53.347656 38.703125 -56.128906 36.796875 -58.171875 C 34.890625 -60.210938 31.96875 -61.234375 28.03125 -61.234375 C 24.082031 -61.234375 21.15625 -60.210938 19.25 -58.171875 C 17.351562 -56.128906 16.40625 -53.519531 16.40625 -50.34375 L 16.40625 -18.6875 C 16.40625 -15.570312 17.351562 -12.992188 19.25 -10.953125 C 21.15625 -8.910156 24.082031 -7.890625 28.03125 -7.890625 C 31.96875 -7.890625 34.890625 -8.910156 36.796875 -10.953125 C 38.703125 -12.992188 39.65625 -15.78125 39.65625 -19.3125 L 39.65625 -24.1875 L 49.609375 -24.1875 Z M 49.609375 -18.578125 "/></g></g></g><g fill="#006d8f" fill-opacity="1"><g transform="translate(500.37529, 99.695638)"><g><path d="M 41 0 L 41 -30.09375 L 17.4375 -30.09375 L 17.4375 0 L 6.4375 0 L 6.4375 -69.125 L 17.4375 -69.125 L 17.4375 -39.859375 L 41 -39.859375 L 41 -69.125 L 52 -69.125 L 52 0 Z M 41 0 "/></g></g></g><g fill="#006d8f" fill-opacity="1"><g transform="translate(558.809659, 99.695638)"><g><path d="M 37.984375 0 L 33.53125 -17.859375 L 15.78125 -17.859375 L 11.515625 0 L 0.734375 0 L 19 -69.125 L 30.625 -69.125 L 49.09375 0 Z M 24.5 -54.1875 L 17.953125 -26.984375 L 31.25 -26.984375 Z M 24.5 -54.1875 "/></g></g></g><g fill="#006d8f" fill-opacity="1"><g transform="translate(608.629372, 99.695638)"><g><path d="M 43.703125 0 L 23.875 -33 L 16.8125 -45.671875 L 16.8125 0 L 6.4375 0 L 6.4375 -69.125 L 14.953125 -69.125 L 34.25 -35.5 L 41 -22.828125 L 41 -69.125 L 51.375 -69.125 L 51.375 0 Z M 43.703125 0 "/></g></g></g><g fill="#006d8f" fill-opacity="1"><g transform="translate(666.440991, 99.695638)"><g><path d="M 49.609375 -18.578125 C 49.609375 -15.804688 49.191406 -13.191406 48.359375 -10.734375 C 47.535156 -8.285156 46.238281 -6.125 44.46875 -4.25 C 42.707031 -2.382812 40.441406 -0.914062 37.671875 0.15625 C 34.910156 1.226562 31.59375 1.765625 27.71875 1.765625 C 23.84375 1.765625 20.503906 1.160156 17.703125 -0.046875 C 14.898438 -1.265625 12.582031 -2.859375 10.75 -4.828125 C 8.914062 -6.796875 7.5625 -9.078125 6.6875 -11.671875 C 5.820312 -14.265625 5.390625 -16.984375 5.390625 -19.828125 L 5.390625 -49.296875 C 5.390625 -52.066406 5.820312 -54.75 6.6875 -57.34375 C 7.5625 -59.9375 8.914062 -62.238281 10.75 -64.25 C 12.582031 -66.257812 14.898438 -67.851562 17.703125 -69.03125 C 20.503906 -70.207031 23.84375 -70.796875 27.71875 -70.796875 C 31.59375 -70.796875 34.910156 -70.257812 37.671875 -69.1875 C 40.441406 -68.113281 42.707031 -66.660156 44.46875 -64.828125 C 46.238281 -62.992188 47.535156 -60.847656 48.359375 -58.390625 C 49.191406 -55.929688 49.609375 -53.316406 49.609375 -50.546875 L 49.609375 -44.9375 L 39.65625 -44.9375 L 39.65625 -49.828125 C 39.65625 -53.347656 38.703125 -56.128906 36.796875 -58.171875 C 34.890625 -60.210938 31.96875 -61.234375 28.03125 -61.234375 C 24.082031 -61.234375 21.15625 -60.210938 19.25 -58.171875 C 17.351562 -56.128906 16.40625 -53.519531 16.40625 -50.34375 L 16.40625 -18.6875 C 16.40625 -15.570312 17.351562 -12.992188 19.25 -10.953125 C 21.15625 -8.910156 24.082031 -7.890625 28.03125 -7.890625 C 31.96875 -7.890625 34.890625 -8.910156 36.796875 -10.953125 C 38.703125 -12.992188 39.65625 -15.78125 39.65625 -19.3125 L 39.65625 -24.1875 L 49.609375 -24.1875 Z M 49.609375 -18.578125 "/></g></g></g><g fill="#006d8f" fill-opacity="1"><g transform="translate(719.685823, 99.695638)"><g><path d="M 6.4375 0 L 6.4375 -69.125 L 43.796875 -69.125 L 43.796875 -59.265625 L 17.4375 -59.265625 L 17.4375 -41.109375 L 36.4375 -41.109375 L 36.4375 -31.765625 L 17.4375 -31.765625 L 17.4375 -9.859375 L 43.796875 -9.859375 L 43.796875 0 Z M 6.4375 0 "/></g></g></g></g></g></svg>