<svg xmlns="http://www.w3.org/2000/svg" xmlns:xlink="http://www.w3.org/1999/xlink" width="1024" zoomAndPan="magnify" viewBox="0 0 768 767.999994" height="1024" preserveAspectRatio="xMidYMid meet" version="1.0"><path fill="#afc8a0" d="M 85.316406 370.4375 C 82.296875 357.742188 90.320312 346.789062 103.078125 346.015625 C 104.933594 345.902344 105.9375 345.226562 106.769531 343.609375 C 125.949219 306.445312 145.175781 269.300781 164.386719 232.152344 C 172.179688 217.082031 179.925781 201.996094 187.773438 186.957031 C 188.679688 185.21875 188.664062 184.0625 187.449219 182.398438 C 180.964844 173.539062 182.640625 161.636719 191.089844 155.28125 C 199.777344 148.75 211.707031 150.410156 218.386719 159.25 C 219.613281 160.867188 220.777344 161.191406 222.65625 161.046875 C 243.703125 159.425781 264.765625 157.957031 285.8125 156.316406 C 311.105469 154.347656 336.386719 152.207031 361.679688 150.226562 C 377.519531 148.988281 393.375 147.984375 409.210938 146.738281 C 428.867188 145.1875 448.511719 143.476562 468.164062 141.882812 C 475.285156 141.304688 482.414062 140.761719 489.550781 140.410156 C 492.992188 140.242188 495.214844 139.550781 496.542969 135.644531 C 499.265625 127.628906 508.753906 122.847656 517.335938 124.367188 C 526.242188 125.9375 533.535156 133.53125 533.269531 142.191406 C 533.113281 147.171875 535.042969 149.460938 539.054688 151.789062 C 571.90625 170.859375 604.625 190.152344 637.367188 209.410156 C 639.136719 210.449219 640.507812 210.847656 642.597656 209.703125 C 652.160156 204.46875 664.101562 208.183594 668.976562 217.664062 C 674.023438 227.484375 670.210938 239.03125 660.183594 244.003906 C 658.539062 244.820312 657.886719 245.828125 657.6875 247.648438 C 655.660156 266.292969 653.503906 284.921875 651.445312 303.5625 C 649.644531 319.878906 647.945312 336.203125 646.148438 352.515625 C 644.984375 363.105469 643.757812 373.6875 642.492188 384.261719 C 642.234375 386.402344 642.628906 387.992188 644.191406 389.714844 C 649.753906 395.851562 651.371094 402.9375 648.011719 410.730469 C 644.765625 418.261719 638.667969 422.023438 630.707031 422.394531 C 625.429688 422.640625 620.597656 420.714844 616.84375 416.828125 C 615.335938 415.261719 613.875 414.855469 611.75 415.164062 C 588.335938 418.578125 564.898438 421.859375 541.480469 425.253906 C 515.949219 428.953125 490.433594 432.730469 464.910156 436.46875 C 464.066406 436.59375 463.214844 436.683594 462.363281 436.734375 C 457.765625 437.027344 453.65625 437.828125 451.671875 442.957031 C 450.710938 445.445312 448.226562 447.113281 445.804688 448.207031 C 443.347656 449.320312 443.054688 451.007812 443.160156 453.324219 C 443.804688 467.386719 444.441406 481.453125 444.925781 495.523438 C 445.492188 511.941406 445.820312 528.371094 446.402344 544.789062 C 447.128906 565.363281 448.039062 585.929688 448.78125 606.503906 C 448.855469 608.601562 449.53125 609.667969 451.484375 610.574219 C 461.082031 615.007812 465.183594 625.515625 461.316406 635.257812 C 457.59375 644.632812 447.113281 649.652344 437.730469 646.554688 C 427.539062 643.191406 421.636719 633.152344 425.054688 623.035156 C 426.789062 617.894531 425.273438 615.207031 421.976562 611.832031 C 403.324219 592.753906 384.855469 573.492188 366.328125 554.296875 C 350.910156 538.324219 335.472656 522.371094 320.105469 506.347656 C 318.5 504.675781 316.847656 503.945312 314.527344 503.90625 C 308.875 503.816406 303.21875 503.5625 297.582031 503.132812 C 295.535156 502.976562 294.59375 503.640625 293.644531 505.390625 C 289.273438 513.429688 281.371094 517.191406 272.792969 515.539062 C 264.511719 513.945312 258.460938 507.320312 257.257812 498.53125 C 256.03125 489.570312 262.414062 480.160156 271.484375 478.039062 C 274.289062 477.382812 275.667969 476.347656 275.867188 473.332031 C 276.070312 470.273438 276.796875 467.226562 277.503906 464.222656 C 277.984375 462.183594 277.304688 461.210938 275.476562 460.296875 C 260.207031 452.660156 244.988281 444.921875 229.753906 437.210938 C 202.238281 423.289062 174.726562 409.363281 147.210938 395.445312 C 138.167969 390.867188 129.085938 386.363281 120.089844 381.695312 C 117.789062 380.5 116.035156 380.46875 113.65625 381.832031 C 102.347656 388.324219 89.40625 383.128906 85.316406 370.4375 M 552.277344 408.980469 C 570.957031 406.335938 589.636719 403.679688 608.320312 401.0625 C 610.085938 400.8125 611.261719 400.144531 611.730469 398.289062 C 613.570312 391.003906 618.3125 386.511719 625.414062 384.429688 C 627.058594 383.949219 627.851562 383.136719 628.050781 381.351562 C 628.730469 375.210938 629.683594 369.101562 630.351562 362.964844 C 632.601562 342.417969 634.726562 321.859375 636.984375 301.316406 C 638.976562 283.210938 641.070312 265.117188 643.15625 247.019531 C 643.375 245.132812 642.941406 243.851562 641.238281 242.738281 C 635.539062 239.007812 632.796875 233.46875 632.578125 226.808594 C 632.496094 224.28125 631.507812 223.019531 629.472656 221.835938 C 614.894531 213.363281 600.371094 204.792969 585.832031 196.25 C 566.234375 184.734375 546.640625 173.214844 527.046875 161.691406 C 525.460938 160.757812 524.0625 160.132812 522.011719 161.007812 C 513.617188 164.597656 506.164062 162.835938 499.820312 156.371094 C 498.6875 155.214844 497.566406 154.5625 495.917969 154.675781 C 490.488281 155.042969 485.046875 155.257812 479.625 155.675781 C 464.3125 156.863281 449.011719 158.152344 433.703125 159.347656 C 421.796875 160.28125 409.878906 161.089844 397.972656 162.03125 C 380.117188 163.445312 362.265625 164.941406 344.410156 166.367188 C 332.503906 167.316406 320.589844 168.183594 308.679688 169.121094 C 293.480469 170.316406 278.28125 171.542969 263.082031 172.757812 C 250.007812 173.804688 236.9375 174.871094 223.863281 175.890625 C 222.472656 176 221.46875 176.328125 220.859375 177.753906 C 217.839844 184.820312 212.457031 188.890625 204.863281 189.933594 C 203.15625 190.167969 202.242188 190.976562 201.5 192.421875 C 196.09375 202.957031 190.632812 213.464844 185.199219 223.984375 C 175.449219 242.847656 165.695312 261.710938 155.957031 280.578125 C 143.972656 303.808594 132.023438 327.054688 119.988281 350.257812 C 119.066406 352.03125 119.175781 353.347656 120.25 354.941406 C 122.132812 357.738281 123.15625 360.941406 123.28125 364.269531 C 123.363281 366.476562 124.394531 367.425781 126.164062 368.320312 C 142.082031 376.328125 157.957031 384.417969 173.859375 392.460938 C 212.898438 412.214844 251.929688 431.976562 291.015625 451.640625 C 293.585938 452.9375 294.261719 454.324219 293.6875 457.105469 C 292.136719 464.617188 290.867188 472.1875 289.535156 479.742188 C 289.050781 482.5 293.441406 488.070312 296.195312 488.230469 C 304.175781 488.695312 312.160156 489.222656 320.152344 489.5 C 323.003906 489.597656 325.144531 490.414062 327.164062 492.523438 C 343.917969 510.019531 360.78125 527.414062 377.597656 544.851562 C 393.449219 561.292969 409.28125 577.753906 425.136719 594.191406 C 427.816406 596.96875 430.558594 599.679688 433.800781 602.953125 C 433.800781 600.871094 433.839844 599.707031 433.792969 598.546875 C 433.417969 588.738281 432.988281 578.933594 432.644531 569.125 C 431.972656 550.039062 431.347656 530.953125 430.703125 511.867188 C 430.03125 492.140625 429.320312 472.417969 428.742188 452.691406 C 428.671875 450.40625 427.945312 449.089844 426.003906 447.832031 C 418.804688 443.175781 415.855469 436.289062 417.328125 427.988281 C 418.761719 419.910156 423.859375 414.578125 431.929688 412.765625 C 440.085938 410.9375 446.984375 413.5625 451.863281 420.34375 C 453.648438 422.824219 455.476562 423.140625 458.089844 422.742188 C 467.882812 421.238281 477.691406 419.8125 487.496094 418.390625 C 508.90625 415.28125 530.320312 412.195312 552.277344 408.980469 M 445.292969 422.304688 C 444.523438 421.738281 443.785156 421.113281 442.972656 420.609375 C 438.058594 417.539062 431.855469 418.089844 427.554688 421.953125 C 423.289062 425.789062 422.117188 432.285156 424.757812 437.496094 C 427.191406 442.308594 433.039062 445.117188 438.46875 444.207031 C 447.394531 442.710938 453.359375 431.367188 445.292969 422.304688 M 617.40625 401.886719 C 617.257812 403.714844 617.464844 405.488281 618.101562 407.222656 C 620.34375 413.324219 626.53125 416.921875 632.839844 415.765625 C 638.902344 414.65625 643.445312 408.910156 643.234375 402.621094 C 643.019531 396.128906 638.269531 391.121094 631.609375 390.351562 C 624.867188 389.574219 619.699219 393.59375 617.40625 401.886719 M 264.871094 502.023438 C 266.773438 505.726562 269.632812 508.234375 273.78125 509.117188 C 279.464844 510.328125 285.179688 507.691406 287.796875 502.652344 C 290.597656 497.269531 289.621094 491.113281 285.355469 487.191406 C 280.859375 483.0625 274.535156 482.511719 269.492188 485.808594 C 264.34375 489.171875 262.589844 494.917969 264.871094 502.023438 M 444.914062 615.335938 C 444.167969 615.308594 443.421875 615.226562 442.675781 615.265625 C 435.828125 615.621094 430.214844 621.632812 430.375 628.410156 C 430.542969 635.300781 436.304688 640.808594 443.332031 640.800781 C 449.867188 640.792969 455.339844 636.222656 456.15625 630.09375 C 457.113281 622.90625 452.964844 617.207031 444.914062 615.335938 M 639.546875 230.425781 C 639.945312 231.296875 640.285156 232.195312 640.753906 233.027344 C 643.804688 238.417969 650.234375 240.804688 656.15625 238.777344 C 662.132812 236.726562 665.445312 230.785156 664.410156 223.96875 C 663.5625 218.414062 658.144531 213.875 652.210938 213.753906 C 643.546875 213.574219 638.148438 220.371094 639.546875 230.425781 M 505.726562 153.0625 C 511.449219 157.507812 517.980469 157.441406 522.847656 152.890625 C 527.269531 148.753906 528.257812 141.296875 525.011719 136.535156 C 520.417969 129.800781 512.25 128.515625 505.832031 133.59375 C 501.066406 137.367188 498.742188 146.488281 505.726562 153.0625 M 113.894531 357.21875 C 108.152344 351.132812 99.84375 350.71875 94.660156 356.269531 C 89.277344 362.03125 89.898438 370.539062 96.0625 375.414062 C 100.890625 379.230469 107.878906 378.921875 112.507812 374.6875 C 117.4375 370.175781 118.066406 363.761719 113.894531 357.21875 M 204.113281 157.96875 C 201.757812 157.871094 199.449219 157.925781 197.265625 159.046875 C 191.480469 162.003906 188.71875 168.316406 190.625 174.355469 C 192.675781 180.84375 198.488281 184.398438 205.253906 183.304688 C 210.871094 182.398438 215.609375 176.816406 215.808594 170.867188 C 216.015625 164.722656 211.15625 159.117188 204.113281 157.96875 Z M 204.113281 157.96875 " fill-opacity="1" fill-rule="nonzero"/><path fill="#afc8a0" d="M 293.511719 189.371094 C 295.753906 192.582031 298.730469 192.4375 301.9375 192.117188 C 312.96875 191.015625 324.011719 190.050781 335.054688 189.066406 C 347.898438 187.917969 360.75 186.816406 373.59375 185.671875 C 384.632812 184.683594 395.671875 183.664062 406.710938 182.652344 C 421.78125 181.269531 436.855469 179.863281 451.929688 178.5 C 464.882812 177.332031 477.839844 176.21875 490.796875 175.066406 C 500.5625 174.199219 510.328125 173.34375 520.085938 172.410156 C 522.214844 172.207031 523.929688 172.710938 525.738281 173.929688 C 559.453125 196.648438 593.203125 219.308594 626.992188 241.917969 C 628.988281 243.253906 629.511719 244.582031 629.007812 246.953125 C 622.988281 275.421875 617.070312 303.910156 611.148438 332.398438 C 608.394531 345.652344 605.605469 358.898438 603.046875 372.1875 C 602.496094 375.046875 601.160156 376.109375 598.476562 376.375 C 587.761719 377.429688 577.058594 378.574219 566.351562 379.699219 C 551.402344 381.269531 536.453125 382.847656 521.503906 384.425781 C 506.242188 386.039062 490.980469 387.667969 475.714844 389.273438 C 459.917969 390.933594 444.121094 392.578125 428.324219 394.234375 C 421.433594 394.953125 414.542969 395.671875 407.65625 396.421875 C 405.984375 396.605469 404.261719 396.605469 402.257812 397.519531 C 408.207031 457.605469 414.167969 517.761719 420.125 577.945312 C 418.332031 578.214844 418 576.9375 417.441406 576.1875 C 397.695312 549.777344 377.984375 523.339844 358.273438 496.90625 C 353.613281 490.660156 348.921875 484.441406 344.328125 478.152344 C 343.125 476.503906 341.703125 475.515625 339.71875 475.019531 C 326.375 471.703125 313.0625 468.253906 299.707031 464.992188 C 297.140625 464.363281 296.433594 463.398438 297.183594 460.785156 C 299.742188 451.871094 302.09375 442.898438 304.523438 433.945312 C 304.851562 432.722656 305.15625 431.492188 305.546875 429.964844 C 299.738281 427.289062 294.0625 424.632812 288.351562 422.050781 C 244.511719 402.226562 200.664062 382.421875 156.820312 362.609375 C 154.195312 361.421875 151.613281 360.128906 148.941406 359.058594 C 146.65625 358.144531 146.125 357.058594 147.410156 354.738281 C 158.957031 333.9375 170.414062 313.082031 181.886719 292.238281 C 192.742188 272.515625 203.582031 252.785156 214.433594 233.058594 C 215.664062 230.8125 216.84375 228.539062 218.148438 226.335938 C 220.277344 222.746094 221.859375 219.085938 222.460938 214.804688 C 223.328125 208.65625 228.25 204.910156 234.363281 204.804688 C 240.304688 204.699219 245.195312 208.3125 246.769531 213.964844 C 249.226562 222.773438 242.441406 230.65625 232.921875 229.730469 C 230.449219 229.488281 229.324219 230.152344 228.199219 232.203125 C 208.632812 267.957031 188.996094 303.671875 169.375 339.394531 C 167.121094 343.492188 164.847656 347.574219 162.621094 351.597656 C 163.785156 353.265625 165.414062 353.65625 166.824219 354.292969 C 201.707031 370.109375 236.613281 385.878906 271.507812 401.671875 C 286.378906 408.40625 301.207031 415.230469 316.113281 421.878906 C 318.746094 423.054688 319.460938 424.207031 318.546875 427.160156 C 315.878906 435.8125 313.628906 444.601562 311.238281 453.339844 C 311.046875 454.039062 311.035156 454.789062 310.90625 455.761719 C 314.800781 456.78125 318.582031 457.792969 322.371094 458.757812 C 330.53125 460.839844 338.6875 462.945312 346.878906 464.914062 C 348.675781 465.347656 349.859375 466.222656 350.941406 467.675781 C 368.019531 490.617188 385.144531 513.523438 402.261719 536.4375 C 402.699219 537.023438 403.175781 537.582031 403.996094 538.605469 C 404.761719 534.105469 403.753906 530.183594 403.410156 526.285156 C 402.335938 514.183594 401.027344 502.105469 399.800781 490.015625 C 398.390625 476.128906 396.933594 462.246094 395.566406 448.355469 C 394.15625 434.035156 392.84375 419.703125 391.457031 405.378906 C 390.964844 400.289062 390.46875 395.199219 389.789062 390.132812 C 389.441406 387.570312 390.105469 386.539062 392.855469 386.265625 C 415.550781 384.015625 438.234375 381.652344 460.914062 379.257812 C 477.65625 377.484375 494.382812 375.558594 511.128906 373.796875 C 530.738281 371.734375 550.359375 369.796875 569.972656 367.75 C 576.648438 367.054688 583.296875 366.109375 589.976562 365.445312 C 592.09375 365.238281 592.871094 364.238281 593.261719 362.308594 C 597.925781 339.449219 602.640625 316.597656 607.347656 293.746094 C 610.203125 279.863281 613 265.972656 615.996094 252.121094 C 616.527344 249.671875 615.800781 248.390625 613.882812 247.105469 C 583.828125 226.980469 553.777344 206.84375 523.800781 186.597656 C 520.917969 184.652344 518.175781 184.273438 514.804688 184.648438 C 504.421875 185.800781 493.996094 186.578125 483.585938 187.5 C 467.867188 188.890625 452.152344 190.289062 436.433594 191.660156 C 422.519531 192.875 408.597656 194.007812 394.6875 195.261719 C 377.914062 196.777344 361.148438 198.402344 344.375 199.949219 C 333.441406 200.957031 322.5 201.914062 311.5625 202.886719 C 308.484375 203.160156 305.40625 203.453125 302.320312 203.652344 C 299.363281 203.847656 297.132812 204.660156 295.152344 207.378906 C 291.304688 212.652344 283.757812 213.425781 278.507812 209.738281 C 272.917969 205.8125 271.40625 198.648438 274.910156 192.699219 C 278.140625 187.210938 285.257812 185.09375 291.132812 187.902344 C 291.898438 188.265625 292.59375 188.777344 293.511719 189.371094 Z M 293.511719 189.371094 " fill-opacity="1" fill-rule="nonzero"/><path fill="#afc8a0" d="M 400.871094 225.191406 C 425.644531 222.582031 450.128906 220.03125 474.617188 217.460938 C 492.632812 215.570312 510.648438 213.660156 528.660156 211.734375 C 530.269531 211.5625 531.523438 212.007812 532.710938 213.128906 C 550.628906 230.054688 568.5625 246.964844 586.527344 263.84375 C 587.894531 265.132812 588.308594 266.394531 588.136719 268.335938 C 587.078125 280.226562 586.230469 292.136719 585.289062 304.039062 C 584.8125 310.09375 584.222656 316.144531 583.820312 322.207031 C 583.644531 324.839844 582.605469 325.84375 579.851562 325.886719 C 555.414062 326.257812 530.980469 326.71875 506.550781 327.242188 C 478.8125 327.835938 451.078125 328.527344 423.34375 329.160156 C 404.675781 329.585938 386.003906 330.023438 367.335938 330.351562 C 364.972656 330.394531 363.441406 330.785156 362.425781 333.273438 C 361.035156 336.683594 358.171875 338.851562 354.660156 339.964844 C 352.886719 340.53125 352.175781 341.453125 352.070312 343.382812 C 351.292969 357.648438 350.390625 371.910156 349.519531 386.171875 C 348.875 396.703125 348.21875 407.238281 347.5625 417.769531 C 347.496094 418.832031 347.421875 419.90625 346.433594 420.941406 C 343.152344 419.300781 340.335938 416.851562 337.351562 414.707031 C 298.175781 386.574219 259.039062 358.394531 219.894531 330.21875 C 216.835938 328.015625 216.832031 327.804688 219.503906 325.328125 C 246.992188 299.890625 274.484375 274.453125 301.96875 249.007812 C 306.429688 244.875 310.90625 240.75 315.277344 236.523438 C 317.300781 234.570312 319.574219 233.625 322.367188 233.34375 C 340.28125 231.53125 358.1875 229.601562 376.097656 227.726562 C 384.257812 226.875 392.425781 226.066406 400.871094 225.191406 M 538.832031 315.488281 C 539.363281 315.464844 539.898438 315.445312 540.429688 315.425781 C 550.453125 315.09375 560.492188 315.632812 570.507812 314.792969 C 571.957031 314.671875 573.257812 314.683594 573.410156 312.683594 C 574.453125 299.1875 575.539062 285.695312 576.636719 272.203125 C 576.769531 270.582031 576.246094 269.347656 575.054688 268.234375 C 560.027344 254.148438 544.980469 240.085938 530.0625 225.886719 C 527.789062 223.722656 525.515625 223.191406 522.570312 223.527344 C 509.226562 225.046875 495.871094 226.472656 482.511719 227.859375 C 467.246094 229.441406 451.964844 230.882812 436.699219 232.5 C 422.183594 234.039062 407.6875 235.8125 393.167969 237.324219 C 371.117188 239.625 349.054688 241.765625 327.003906 244.042969 C 325.054688 244.246094 323.089844 244.417969 321.414062 245.988281 C 309.277344 257.378906 297.054688 268.675781 284.847656 279.992188 C 271.152344 292.679688 257.4375 305.347656 243.75 318.042969 C 240.65625 320.910156 237.644531 323.867188 234.40625 326.964844 C 268.839844 351.742188 302.890625 376.246094 337.289062 400.996094 C 337.863281 393.097656 338.457031 385.785156 338.914062 378.46875 C 339.59375 367.613281 340.3125 356.757812 340.726562 345.894531 C 340.855469 342.535156 342.089844 339.023438 339.480469 335.761719 C 334.597656 329.660156 335.398438 320.589844 340.902344 316.144531 C 347.261719 311.011719 355.386719 311.71875 360.933594 317.945312 C 361.832031 318.953125 362.664062 319.617188 364.160156 319.570312 C 375.570312 319.210938 386.980469 318.929688 398.390625 318.664062 C 418.015625 318.207031 437.636719 317.777344 457.257812 317.339844 C 478.382812 316.871094 499.503906 316.410156 520.625 315.941406 C 526.492188 315.8125 532.367188 316.109375 538.832031 315.488281 Z M 538.832031 315.488281 " fill-opacity="1" fill-rule="nonzero"/><path fill="#afc8a0" d="M 449.175781 277.273438 C 425.617188 276.730469 402.375 275.808594 379.140625 274.765625 C 372.105469 274.453125 365.054688 274.425781 358.015625 274.214844 C 356.855469 274.183594 355.957031 274.640625 355.0625 275.238281 C 334.074219 289.34375 313.085938 303.449219 292.101562 317.566406 C 291.578125 317.917969 291.121094 318.363281 290.652344 318.75 C 290.65625 320.085938 291.699219 320.640625 292.394531 321.363281 C 294.917969 323.96875 297.597656 326.433594 300.058594 329.097656 C 302.78125 332.042969 305.296875 333.960938 310.054688 333.636719 C 318.207031 333.078125 324.550781 340.492188 323.886719 348.277344 C 323.164062 356.6875 316.410156 362.160156 307.972656 361.164062 C 300.011719 360.222656 294.671875 352.988281 296.253906 344.75 C 296.734375 342.25 296.078125 340.792969 294.421875 339.167969 C 288.015625 332.894531 281.710938 326.515625 275.378906 320.167969 C 274.566406 319.355469 273.585938 318.65625 273.132812 317.257812 C 275.945312 314.484375 279.441406 312.621094 282.664062 310.445312 C 305.304688 295.160156 328.023438 279.988281 350.699219 264.75 C 352.265625 263.695312 353.824219 263.113281 355.757812 263.191406 C 364.929688 263.558594 374.105469 263.601562 383.28125 263.953125 C 411.527344 265.039062 439.789062 265.839844 468.042969 266.796875 C 484.355469 267.34375 500.667969 267.964844 516.980469 268.574219 C 518.683594 268.640625 520.382812 268.8125 522.078125 268.980469 C 525.410156 269.3125 528.203125 269.085938 531.023438 266.375 C 536.871094 260.75 546.554688 262.09375 551.355469 268.605469 C 556.046875 274.96875 554.382812 284.257812 547.757812 288.636719 C 541.03125 293.085938 531.574219 290.925781 527.917969 283.621094 C 526.386719 280.558594 524.480469 279.886719 521.457031 279.789062 C 497.464844 279.019531 473.472656 278.132812 449.175781 277.273438 Z M 449.175781 277.273438 " fill-opacity="1" fill-rule="nonzero"/></svg>